<svg xmlns="http://www.w3.org/2000/svg" xmlns:v="https://svgstorm.com"
viewBox = "0 0 500 500"
width="500"
height="500">
<g fill="None" fill-opacity="0.0" stroke="#000000" stroke-opacity="0.00" stroke-width="0.3"><path d="
M 0.00 500.00 
L 500.00 500.00
L 500.00 0.00
L 0.00 0.00
L 0.00 500.00
M 448.00 143.00 
C 460.47 159.77 466.93 179.85 472.00 200.00
C 488.55 265.78 472.12 336.91 431.00 389.00
C 428.35 392.35 425.54 395.82 423.00 399.00
C 422.82 400.15 421.72 400.45 421.00 401.00
C 416.35 405.61 412.08 410.88 407.00 415.00
C 406.40 415.63 405.66 416.44 405.00 417.00
C 399.48 421.69 394.01 426.87 388.00 431.00
C 384.89 433.14 381.89 435.41 379.00 437.00
C 374.44 440.09 370.02 443.38 365.00 446.00
C 363.15 446.97 361.81 447.25 360.00 448.00
C 355.16 450.55 350.28 453.72 345.00 456.00
C 336.98 459.46 329.49 463.09 321.00 465.00
C 318.56 465.79 315.86 467.26 313.00 468.00
C 298.71 471.71 284.19 474.70 269.00 475.00
C 266.19 475.34 262.47 476.00 259.00 476.00
C 251.67 476.00 244.33 476.00 237.00 476.00
C 233.42 476.00 229.89 475.56 227.00 475.00
C 196.25 472.56 165.78 462.29 139.00 448.00
C 136.75 446.80 134.38 446.21 133.00 444.00
C 132.52 443.90 132.00 444.00 132.00 444.00
C 126.42 441.81 120.03 437.20 116.00 433.00
C 115.52 432.91 115.00 433.00 115.00 433.00
C 108.91 428.35 102.58 424.14 97.00 419.00
C 96.74 418.76 96.32 418.20 96.00 418.00
C 86.01 411.83 77.39 399.65 70.00 391.00
C 65.39 385.61 61.06 380.11 58.00 374.00
C 56.19 371.10 53.79 368.19 52.00 365.00
C 50.91 363.05 50.72 362.02 50.00 360.00
C 48.13 356.46 45.70 352.93 44.00 349.00
C 35.72 329.82 28.91 311.63 25.00 291.00
C 24.29 287.27 23.35 282.74 23.00 279.00
C 22.59 274.63 22.55 269.37 23.00 265.00
C 22.81 262.56 22.31 260.94 23.00 258.00
C 22.90 223.68 23.49 186.58 44.00 159.00
C 76.52 83.66 157.43 28.00 240.00 28.00
C 246.33 28.00 252.67 28.00 259.00 28.00
C 297.75 28.00 343.92 42.79 374.75 64.25 C 405.57 85.72 432.59 109.29 448.00 143.00 Z"/>
</g>
<g fill="None" fill-opacity="0.0" stroke="#D7E1E9" stroke-opacity="0.97" stroke-width="0.3"><path d="
M 44.00 159.00 
C 30.03 191.36 25.00 222.50 25.00 259.00
C 25.00 321.13 56.43 376.44 101.75 417.25 C 147.07 458.06 219.31 480.43 281.00 471.00 C 342.69 461.57 389.33 433.82 429.30 384.30 C 469.28 334.78 483.39 262.85 469.00 200.00
C 464.43 180.05 456.48 161.54 448.00 143.00
C 432.59 109.29 405.57 85.72 374.75 64.25 C 343.92 42.79 297.75 28.00 259.00 28.00
C 253.02 28.58 245.91 28.57 240.00 28.00
C 157.43 28.00 76.52 83.66 44.00 159.00
M 256.00 33.00 
C 365.52 33.00 469.00 128.39 469.00 240.00
C 469.88 249.06 470.29 259.99 469.00 269.00
C 466.96 322.35 441.08 369.17 402.25 407.25 C 363.42 445.33 313.35 464.12 258.00 468.00 C 202.65 471.88 148.89 445.72 105.00 415.00
C 102.21 413.05 100.29 410.29 98.00 408.00
C 93.69 403.69 88.94 399.61 85.00 395.00
C 55.83 360.86 31.00 315.89 31.00 270.00
C 30.77 267.58 30.00 264.09 30.00 261.00
C 30.00 254.00 30.00 247.00 30.00 240.00
C 30.00 236.25 30.71 232.01 31.00 229.00
C 31.00 180.00 60.11 135.14 91.00 99.00
C 93.49 96.09 96.14 93.44 99.00 91.00
C 139.46 56.43 187.81 33.00 242.00 33.00
C 246.40 32.57 251.66 32.58 256.00 33.00 Z"/>
</g>
<g fill="None" fill-opacity="0.0" stroke="#F3F7F7" stroke-opacity="0.85" stroke-width="0.3"><path d="
M 259.00 28.00 
C 252.67 28.00 246.33 28.00 240.00 28.00
C 245.91 28.57 253.02 28.58 259.00 28.00 Z"/>
</g>
<g fill="None" fill-opacity="0.0" stroke="#5F7398" stroke-opacity="1.00" stroke-width="0.3"><path d="
M 242.00 33.00 
C 246.67 33.00 251.33 33.00 256.00 33.00
C 251.66 32.58 246.40 32.57 242.00 33.00 Z"/>
</g>
<g fill="None" fill-opacity="0.0" stroke="#03255A" stroke-opacity="1.00" stroke-width="0.3"><path d="
M 99.00 91.00 
C 96.41 93.59 93.54 96.46 91.00 99.00
C 60.11 135.14 31.00 180.00 31.00 229.00
C 31.00 232.75 30.29 236.99 30.00 240.00
C 30.00 247.00 30.00 254.00 30.00 261.00
C 30.23 263.42 31.00 266.91 31.00 270.00
C 31.00 315.89 55.83 360.86 85.00 395.00
C 89.25 399.25 93.80 403.80 98.00 408.00
C 100.10 410.10 102.80 413.19 105.00 415.00
C 148.89 445.72 202.65 471.88 258.00 468.00 C 313.35 464.12 363.42 445.33 402.25 407.25 C 441.08 369.17 466.96 322.35 469.00 269.00
C 469.37 259.37 469.00 249.64 469.00 240.00
C 469.00 128.39 365.52 33.00 256.00 33.00
C 251.33 33.00 246.67 33.00 242.00 33.00
C 187.81 33.00 139.46 56.43 99.00 91.00
M 398.00 147.00 
C 394.44 144.21 395.43 146.27 393.00 146.00
C 390.10 149.71 389.06 156.01 386.00 160.00
C 379.51 168.46 374.36 178.16 369.00 187.00
C 365.93 184.40 370.83 181.18 370.00 178.00
C 361.67 180.06 354.32 185.96 349.00 193.00
C 346.51 195.91 343.49 200.30 340.00 202.00
C 339.60 202.20 339.00 202.00 339.00 202.00
C 322.33 212.37 304.57 223.71 284.00 223.00
C 295.94 215.38 308.82 208.64 322.00 203.00
C 338.14 195.87 346.61 187.40 357.00 173.00
C 360.63 167.97 363.40 163.09 369.00 160.00
C 369.25 159.74 369.25 158.21 369.00 158.00
C 367.38 156.63 363.97 155.67 362.00 155.00
C 359.28 154.07 353.55 150.93 351.00 153.00
C 346.57 158.17 347.18 168.58 339.77 171.77 C 332.36 174.96 328.11 181.98 319.99 182.99 C 311.87 184.00 305.35 188.06 297.92 190.92 C 290.50 193.79 283.93 199.18 276.00 200.00
C 276.22 198.07 280.90 196.45 279.00 195.00
C 276.19 197.07 275.14 197.00 272.00 198.00
C 268.30 199.18 262.51 197.08 258.25 192.75 C 254.00 188.42 249.16 185.86 244.00 184.00
C 241.59 183.13 238.56 182.60 236.00 182.00
C 222.10 178.71 209.97 177.47 198.00 169.00
C 187.51 161.58 185.55 149.39 182.00 138.00
C 182.16 138.51 180.45 135.66 181.00 136.00
C 171.79 135.18 164.17 145.24 158.00 151.00
C 156.90 152.02 154.28 155.78 153.00 156.00
C 167.89 169.84 183.21 182.26 199.00 194.00
C 203.55 197.38 206.87 202.40 211.00 206.00
C 219.49 212.31 230.14 215.39 239.00 221.00
C 232.98 230.11 219.97 220.88 211.31 218.69 C 202.64 216.51 194.61 209.63 186.77 205.23 C 178.93 200.83 168.26 196.99 166.00 187.00
C 160.06 175.87 152.97 168.98 144.78 160.22 C 136.58 151.47 125.93 147.26 118.00 139.00
C 117.83 138.82 116.91 136.95 117.00 137.00
C 108.42 136.89 101.93 147.65 95.75 153.75 C 89.58 159.86 82.60 166.41 77.25 174.25 C 71.89 182.09 66.37 187.36 60.25 196.25 C 54.13 205.13 39.06 209.02 42.93 195.93 C 46.80 182.83 49.24 178.07 53.31 167.31 C 57.37 156.54 61.60 150.55 66.31 141.31 C 71.01 132.06 76.92 126.59 82.75 118.75 C 88.59 110.91 94.16 105.04 101.25 98.25 C 108.34 91.46 114.50 86.02 122.25 80.25 C 130.00 74.48 137.64 70.09 146.23 65.23 C 154.82 60.37 163.49 56.74 173.07 53.07 C 182.66 49.41 192.63 46.81 203.07 44.07 C 213.51 41.34 226.74 40.72 238.00 40.00 C 249.26 39.28 263.61 38.61 274.67 40.33 C 285.73 42.05 296.84 44.06 307.02 46.98 C 317.20 49.89 326.89 52.72 336.07 56.93 C 345.25 61.13 353.27 65.71 361.70 70.30 C 370.12 74.90 377.41 80.41 384.75 86.25 C 392.09 92.10 398.88 97.91 405.25 104.75 C 411.62 111.59 417.86 118.67 422.92 126.08 C 427.98 133.49 434.59 141.98 438.25 149.75 C 441.92 157.51 448.57 169.34 449.98 177.02 C 451.38 184.71 462.56 200.01 455.25 205.25 C 447.94 210.49 437.89 194.78 434.25 188.75 C 430.60 182.73 420.90 174.39 416.75 167.25 C 412.60 160.11 403.96 152.97 398.00 147.00
M 360.00 205.00 
C 349.70 218.32 332.07 225.54 317.00 226.00
C 333.33 223.20 343.90 207.16 360.00 205.00
M 185.00 227.00 
C 171.32 226.54 154.42 220.15 145.00 208.00
C 158.57 213.20 170.90 222.51 185.00 227.00
M 278.00 228.00 
C 282.69 224.95 294.43 228.95 299.67 229.33 C 304.91 229.71 313.62 232.45 319.01 232.99 C 324.40 233.53 333.43 235.90 338.02 236.98 C 342.62 238.05 353.80 240.55 351.00 246.00
C 350.46 247.05 349.58 247.26 349.00 248.00
C 343.38 255.17 340.63 265.93 336.00 274.00
C 335.17 275.42 334.84 277.51 333.00 278.00
C 332.70 276.43 333.25 274.39 335.00 274.00
C 334.73 270.17 338.98 262.36 339.98 258.98 C 340.97 255.60 344.57 247.67 348.00 247.00
C 344.43 244.37 334.68 245.91 330.00 246.00
C 326.41 246.07 322.93 245.69 320.00 248.00
C 320.59 249.77 323.44 252.59 321.00 254.00
C 315.59 277.79 305.09 301.18 297.00 324.00
C 296.37 317.12 300.05 308.18 301.78 300.78 C 303.50 293.37 307.62 285.10 308.78 277.78 C 309.93 270.45 317.34 261.77 315.00 257.00
C 305.82 259.79 292.41 256.23 285.26 264.26 C 278.11 272.28 260.09 262.95 254.00 270.00
C 250.64 275.59 255.25 286.16 254.00 293.00 C 252.75 299.84 254.18 309.69 254.00 317.00 C 253.82 324.31 253.64 333.34 253.00 340.00
C 253.00 348.33 253.00 356.67 253.00 365.00
C 247.70 365.66 250.86 358.15 250.00 355.00
C 249.70 351.92 249.00 347.75 249.00 344.00
C 249.00 341.33 249.00 338.67 249.00 336.00
C 249.00 317.86 250.00 299.83 250.00 282.00
C 250.00 278.77 251.15 272.98 250.00 270.00
C 248.20 266.90 245.25 267.18 242.00 267.00
C 238.43 266.81 234.57 266.76 231.00 267.00
C 227.86 267.21 224.22 268.85 221.00 268.00
C 225.21 274.26 224.88 282.53 226.00 290.00 C 227.11 297.48 228.84 306.16 229.00 314.00
C 229.54 318.43 230.00 323.90 230.00 329.00
C 230.00 339.08 232.16 348.65 235.00 358.00
C 235.50 359.65 236.93 361.87 237.00 364.00
C 234.61 363.32 235.26 360.61 234.00 359.00
C 229.41 349.52 227.92 339.46 227.00 329.00 C 226.08 318.54 226.33 305.30 223.22 295.78 C 220.11 286.26 224.66 271.00 216.00 265.00
C 207.99 259.45 197.90 261.97 189.00 259.00
C 194.43 272.26 201.00 285.33 202.00 300.00
C 203.60 300.46 204.09 303.58 204.00 305.00
C 202.18 304.40 201.85 302.44 201.00 301.00
C 196.10 292.65 193.95 282.21 190.68 273.32 C 187.40 264.44 179.71 251.01 194.00 249.00
C 182.81 245.12 169.02 247.99 157.00 246.00
C 160.55 251.68 169.90 262.31 169.00 271.00
C 169.84 273.22 171.88 275.66 173.00 278.00
C 169.47 278.20 170.18 273.74 168.00 272.00
C 162.54 262.51 156.59 253.31 153.00 243.00
C 154.28 243.53 154.86 242.03 156.00 242.00
C 162.46 236.89 172.73 237.26 181.01 236.01 C 189.29 234.76 198.51 231.26 207.07 231.07 C 215.64 230.88 227.67 226.66 236.00 228.00
C 237.19 227.59 238.78 228.32 240.00 228.00
C 238.42 208.94 259.55 206.85 274.00 208.00
C 276.48 208.00 295.04 209.32 289.22 215.22 C 283.40 221.13 278.55 217.56 278.00 228.00
M 271.00 363.00 
C 270.17 364.42 269.84 366.51 268.00 367.00
C 268.52 364.81 266.86 361.38 269.00 360.00
C 273.93 325.50 279.68 290.60 298.00 261.00
C 298.57 297.79 288.25 331.61 271.00 363.00 Z"/>
</g>
<g fill="None" fill-opacity="0.0" stroke="#6CBDE9" stroke-opacity="1.00" stroke-width="0.3"><path d="
M 117.00 137.00 
C 122.22 137.06 128.40 141.01 132.75 144.25 C 137.10 147.50 143.93 149.64 148.00 153.00
C 148.91 153.75 149.85 154.39 151.00 155.00
C 151.02 154.44 157.03 151.72 158.00 151.00
C 164.17 145.24 171.79 135.18 181.00 136.00
C 188.84 136.70 200.70 151.26 204.00 158.00
C 204.55 158.51 205.41 158.63 206.00 159.00
C 209.36 157.31 208.85 146.85 213.75 144.75 C 218.66 142.66 220.33 135.03 226.08 134.08 C 231.83 133.13 234.77 127.82 241.08 127.08 C 247.39 126.35 256.29 125.79 263.22 127.78 C 270.15 129.77 271.52 128.66 279.69 133.31 C 287.87 137.95 296.85 148.73 301.30 156.70 C 305.75 164.67 305.29 169.13 304.67 175.67 C 304.05 182.21 295.44 181.34 292.25 185.25 C 289.07 189.17 282.90 192.13 279.00 195.00
C 280.90 196.45 276.22 198.07 276.00 200.00
C 283.93 199.18 290.50 193.79 297.92 190.92 C 305.35 188.06 311.87 184.00 319.99 182.99 C 328.11 181.98 332.36 174.96 339.77 171.77 C 347.18 168.58 346.57 158.17 351.00 153.00
C 354.75 148.63 358.55 153.01 362.00 155.00
C 363.97 155.67 367.38 156.63 369.00 158.00
C 371.73 156.26 376.61 156.75 375.00 157.00
C 376.06 156.32 376.30 155.96 377.00 155.00
C 382.89 146.92 389.52 138.52 398.00 147.00
C 403.96 152.97 412.60 160.11 416.75 167.25 C 420.90 174.39 430.60 182.73 434.25 188.75 C 437.89 194.78 447.94 210.49 455.25 205.25 C 462.56 200.01 451.38 184.71 449.98 177.02 C 448.57 169.34 441.92 157.51 438.25 149.75 C 434.59 141.98 427.98 133.49 422.92 126.08 C 417.86 118.67 411.62 111.59 405.25 104.75 C 398.88 97.91 392.09 92.10 384.75 86.25 C 377.41 80.41 370.12 74.90 361.70 70.30 C 353.27 65.71 345.25 61.13 336.07 56.93 C 326.89 52.72 317.20 49.89 307.02 46.98 C 296.84 44.06 285.73 42.05 274.67 40.33 C 263.61 38.61 249.26 39.28 238.00 40.00 C 226.74 40.72 213.51 41.34 203.07 44.07 C 192.63 46.81 182.66 49.41 173.07 53.07 C 163.49 56.74 154.82 60.37 146.23 65.23 C 137.64 70.09 130.00 74.48 122.25 80.25 C 114.50 86.02 108.34 91.46 101.25 98.25 C 94.16 105.04 88.59 110.91 82.75 118.75 C 76.92 126.59 71.01 132.06 66.31 141.31 C 61.60 150.55 57.37 156.54 53.31 167.31 C 49.24 178.07 46.80 182.83 42.93 195.93 C 39.06 209.02 54.13 205.13 60.25 196.25 C 66.37 187.36 71.89 182.09 77.25 174.25 C 82.60 166.41 89.58 159.86 95.75 153.75 C 101.93 147.65 108.42 136.89 117.00 137.00
M 342.00 159.00 
C 341.03 161.32 340.84 167.71 334.00 165.00
C 334.25 163.12 336.55 163.54 337.00 162.00
C 340.46 157.87 343.50 152.59 349.00 152.00
C 347.20 154.62 343.37 155.80 342.00 159.00
M 311.00 173.00 
C 309.18 175.90 306.17 178.19 303.00 179.00
C 304.95 176.35 307.95 173.97 311.00 173.00 Z"/>
</g>
<g fill="None" fill-opacity="0.0" stroke="#6E819C" stroke-opacity="1.00" stroke-width="0.3"><path d="
M 91.00 99.00 
C 93.54 96.46 96.41 93.59 99.00 91.00
C 96.14 93.44 93.49 96.09 91.00 99.00 Z"/>
</g>
<g fill="None" fill-opacity="0.0" stroke="#FAFDFC" stroke-opacity="1.00" stroke-width="0.3"><path d="
M 206.00 159.00 
C 218.59 166.84 230.80 174.25 244.00 181.00
C 248.50 183.30 253.49 187.28 258.23 188.77 C 262.97 190.26 267.82 197.11 272.00 198.00
C 275.14 197.00 276.19 197.07 279.00 195.00
C 282.90 192.13 289.07 189.17 292.25 185.25 C 295.44 181.34 304.05 182.21 304.67 175.67 C 305.29 169.13 305.75 164.67 301.30 156.70 C 296.85 148.73 287.87 137.95 279.69 133.31 C 271.52 128.66 270.15 129.77 263.22 127.78 C 256.29 125.79 247.39 126.35 241.08 127.08 C 234.77 127.82 231.83 133.13 226.08 134.08 C 220.33 135.03 218.66 142.66 213.75 144.75 C 208.85 146.85 209.36 157.31 206.00 159.00 Z"/>
</g>
<g fill="None" fill-opacity="0.0" stroke="#436C85" stroke-opacity="1.00" stroke-width="0.3"><path d="
M 182.00 138.00 
C 190.43 141.67 196.43 152.27 204.00 159.00
C 203.77 158.66 204.00 158.00 204.00 158.00
C 200.70 151.26 188.84 136.70 181.00 136.00
C 180.45 135.66 182.16 138.51 182.00 138.00 Z"/>
</g>
<g fill="None" fill-opacity="0.0" stroke="#507F9A" stroke-opacity="1.00" stroke-width="0.3"><path d="
M 118.00 139.00 
C 126.41 143.47 138.65 148.15 148.00 153.00
C 143.93 149.64 137.10 147.50 132.75 144.25 C 128.40 141.01 122.22 137.06 117.00 137.00
C 116.91 136.95 117.83 138.82 118.00 139.00 Z"/>
</g>
<g fill="None" fill-opacity="0.0" stroke="#BCD9EC" stroke-opacity="1.00" stroke-width="0.3"><path d="
M 182.00 138.00 
C 185.55 149.39 187.51 161.58 198.00 169.00
C 201.70 168.11 199.33 163.11 200.00 160.00
C 212.35 166.42 225.02 173.46 236.00 182.00
C 238.56 182.60 241.59 183.13 244.00 184.00
C 244.55 184.54 243.67 182.49 243.00 182.00
C 231.11 173.40 215.20 168.95 204.00 159.00
C 196.43 152.27 190.43 141.67 182.00 138.00 Z"/>
</g>
<g fill="None" fill-opacity="0.0" stroke="#BAD8ED" stroke-opacity="1.00" stroke-width="0.3"><path d="
M 118.00 139.00 
C 125.93 147.26 136.58 151.47 144.78 160.22 C 152.97 168.98 160.06 175.87 166.00 187.00
C 168.72 188.41 166.88 185.85 169.00 186.00
C 170.33 186.09 172.11 188.42 173.00 189.00
C 178.26 192.45 184.45 194.20 190.00 197.00
C 196.34 200.21 202.38 203.54 209.00 206.00
C 207.89 203.59 205.04 202.38 204.00 200.00
C 202.44 198.17 200.75 195.53 199.00 194.00
C 183.21 182.26 167.89 169.84 153.00 156.00
C 152.46 155.49 151.62 155.33 151.00 155.00
C 149.85 154.39 148.91 153.75 148.00 153.00
C 138.65 148.15 126.41 143.47 118.00 139.00 Z"/>
</g>
<g fill="None" fill-opacity="0.0" stroke="#5585A2" stroke-opacity="1.00" stroke-width="0.3"><path d="
M 377.00 155.00 
C 380.08 152.03 384.76 150.16 387.25 146.25 C 389.73 142.34 392.00 145.89 393.00 146.00
C 395.43 146.27 394.44 144.21 398.00 147.00
C 389.52 138.52 382.89 146.92 377.00 155.00 Z"/>
</g>
<g fill="None" fill-opacity="0.0" stroke="#24313F" stroke-opacity="0.74" stroke-width="0.3"><path d="
M 469.00 200.00 
C 469.72 200.46 471.25 199.59 472.00 200.00
C 466.93 179.85 460.47 159.77 448.00 143.00
C 456.48 161.54 464.43 180.05 469.00 200.00 Z"/>
</g>
<g fill="None" fill-opacity="0.0" stroke="#DEEBF5" stroke-opacity="1.00" stroke-width="0.3"><path d="
M 377.00 155.00 
C 376.30 155.96 376.06 156.32 375.00 157.00
C 373.10 158.21 370.97 158.92 369.00 160.00
C 363.40 163.09 360.63 167.97 357.00 173.00
C 360.10 170.59 365.68 168.65 368.92 163.92 C 372.16 159.19 381.49 162.49 386.00 160.00
C 389.06 156.01 390.10 149.71 393.00 146.00
C 392.00 145.89 389.73 142.34 387.25 146.25 C 384.76 150.16 380.08 152.03 377.00 155.00 Z"/>
</g>
<g fill="None" fill-opacity="0.0" stroke="#2D587E" stroke-opacity="1.00" stroke-width="0.3"><path d="
M 151.00 155.00 
C 151.62 155.33 152.46 155.49 153.00 156.00
C 154.28 155.78 156.90 152.02 158.00 151.00
C 157.03 151.72 151.02 154.44 151.00 155.00 Z"/>
</g>
<g fill="None" fill-opacity="0.0" stroke="#4079A8" stroke-opacity="1.00" stroke-width="0.3"><path d="
M 351.00 153.00 
C 353.55 150.93 359.28 154.07 362.00 155.00
C 358.55 153.01 354.75 148.63 351.00 153.00 Z"/>
</g>
<g fill="None" fill-opacity="0.0" stroke="#3F7DA4" stroke-opacity="1.00" stroke-width="0.3"><path d="
M 337.00 162.00 
C 338.46 160.80 340.54 160.27 342.00 159.00
C 343.37 155.80 347.20 154.62 349.00 152.00
C 343.50 152.59 340.46 157.87 337.00 162.00 Z"/>
</g>
<g fill="None" fill-opacity="0.0" stroke="#416782" stroke-opacity="1.00" stroke-width="0.3"><path d="
M 369.00 158.00 
C 369.25 158.21 369.25 159.74 369.00 160.00
C 370.97 158.92 373.10 158.21 375.00 157.00
C 376.61 156.75 371.73 156.26 369.00 158.00 Z"/>
</g>
<g fill="None" fill-opacity="0.0" stroke="#6C828E" stroke-opacity="1.00" stroke-width="0.3"><path d="
M 204.00 159.00 
C 215.20 168.95 231.11 173.40 243.00 182.00
C 243.33 182.01 243.85 180.99 244.00 181.00
C 230.80 174.25 218.59 166.84 206.00 159.00
C 205.41 158.63 204.55 158.51 204.00 158.00
C 204.00 158.00 203.77 158.66 204.00 159.00 Z"/>
</g>
<g fill="None" fill-opacity="0.0" stroke="#1B2935" stroke-opacity="0.71" stroke-width="0.3"><path d="
M 23.00 258.00 
C 23.30 256.74 22.77 255.28 23.00 254.00
C 24.75 254.83 23.66 257.44 24.00 259.00
C 24.00 258.96 25.00 259.00 25.00 259.00
C 25.00 222.50 30.03 191.36 44.00 159.00
C 23.49 186.58 22.90 223.68 23.00 258.00 Z"/>
</g>
<g fill="None" fill-opacity="0.0" stroke="#BAE6FA" stroke-opacity="1.00" stroke-width="0.3"><path d="
M 337.00 162.00 
C 336.55 163.54 334.25 163.12 334.00 165.00
C 340.84 167.71 341.03 161.32 342.00 159.00
C 340.54 160.27 338.46 160.80 337.00 162.00 Z"/>
</g>
<g fill="None" fill-opacity="0.0" stroke="#75B6DD" stroke-opacity="1.00" stroke-width="0.3"><path d="
M 198.00 169.00 
C 209.97 177.47 222.10 178.71 236.00 182.00
C 225.02 173.46 212.35 166.42 200.00 160.00
C 199.33 163.11 201.70 168.11 198.00 169.00 Z"/>
</g>
<g fill="None" fill-opacity="0.0" stroke="#AFD1EC" stroke-opacity="1.00" stroke-width="0.3"><path d="
M 357.00 173.00 
C 346.61 187.40 338.14 195.87 322.00 203.00
C 326.07 202.31 334.71 198.52 339.00 202.00
C 339.00 202.00 339.60 202.20 340.00 202.00
C 342.46 198.48 346.07 195.93 349.00 193.00
C 354.32 185.96 361.67 180.06 370.00 178.00
C 370.83 181.18 365.93 184.40 369.00 187.00
C 374.36 178.16 379.51 168.46 386.00 160.00
C 381.49 162.49 372.16 159.19 368.92 163.92 C 365.68 168.65 360.10 170.59 357.00 173.00 Z"/>
</g>
<g fill="None" fill-opacity="0.0" stroke="#4884A8" stroke-opacity="1.00" stroke-width="0.3"><path d="
M 311.00 173.00 
C 307.95 173.97 304.95 176.35 303.00 179.00
C 306.17 178.19 309.18 175.90 311.00 173.00 Z"/>
</g>
<g fill="None" fill-opacity="0.0" stroke="#7595B1" stroke-opacity="1.00" stroke-width="0.3"><path d="
M 243.00 182.00 
C 243.67 182.49 244.55 184.54 244.00 184.00
C 249.16 185.86 254.00 188.42 258.25 192.75 C 262.51 197.08 268.30 199.18 272.00 198.00
C 267.82 197.11 262.97 190.26 258.23 188.77 C 253.49 187.28 248.50 183.30 244.00 181.00
C 243.85 180.99 243.33 182.01 243.00 182.00 Z"/>
</g>
<g fill="None" fill-opacity="0.0" stroke="#73B6DF" stroke-opacity="1.00" stroke-width="0.3"><path d="
M 166.00 187.00 
C 168.26 196.99 178.93 200.83 186.77 205.23 C 194.61 209.63 202.64 216.51 211.31 218.69 C 219.97 220.88 232.98 230.11 239.00 221.00
C 230.14 215.39 219.49 212.31 211.00 206.00
C 208.66 204.26 206.01 202.01 204.00 200.00
C 205.04 202.38 207.89 203.59 209.00 206.00
C 202.38 203.54 196.34 200.21 190.00 197.00
C 185.83 195.59 178.95 195.29 174.00 192.00
C 171.92 190.62 169.17 188.62 169.00 186.00
C 166.88 185.85 168.72 188.41 166.00 187.00 Z"/>
</g>
<g fill="None" fill-opacity="0.0" stroke="#5487A7" stroke-opacity="1.00" stroke-width="0.3"><path d="
M 174.00 192.00 
C 173.07 191.11 172.81 188.72 173.00 189.00
C 172.11 188.42 170.33 186.09 169.00 186.00
C 169.17 188.62 171.92 190.62 174.00 192.00 Z"/>
</g>
<g fill="None" fill-opacity="0.0" stroke="#2F5E7F" stroke-opacity="1.00" stroke-width="0.3"><path d="
M 174.00 192.00 
C 178.95 195.29 185.83 195.59 190.00 197.00
C 184.45 194.20 178.26 192.45 173.00 189.00
C 172.81 188.72 173.07 191.11 174.00 192.00 Z"/>
</g>
<g fill="None" fill-opacity="0.0" stroke="#375A80" stroke-opacity="1.00" stroke-width="0.3"><path d="
M 340.00 202.00 
C 343.49 200.30 346.51 195.91 349.00 193.00
C 346.07 195.93 342.46 198.48 340.00 202.00 Z"/>
</g>
<g fill="None" fill-opacity="0.0" stroke="#31557D" stroke-opacity="1.00" stroke-width="0.3"><path d="
M 204.00 200.00 
C 206.01 202.01 208.66 204.26 211.00 206.00
C 206.87 202.40 203.55 197.38 199.00 194.00
C 200.75 195.53 202.44 198.17 204.00 200.00 Z"/>
</g>
<g fill="None" fill-opacity="0.0" stroke="#77B5DE" stroke-opacity="1.00" stroke-width="0.3"><path d="
M 322.00 203.00 
C 308.82 208.64 295.94 215.38 284.00 223.00
C 304.57 223.71 322.33 212.37 339.00 202.00
C 334.71 198.52 326.07 202.31 322.00 203.00 Z"/>
</g>
<g fill="None" fill-opacity="0.0" stroke="#1F334A" stroke-opacity="0.82" stroke-width="0.3"><path d="
M 25.00 259.00 
C 25.00 259.00 24.00 258.96 24.00 259.00
C 23.82 261.22 23.22 262.88 23.00 265.00
C 22.55 269.37 22.59 274.63 23.00 279.00
C 24.00 283.29 25.08 286.32 25.00 291.00
C 28.91 311.63 35.72 329.82 44.00 349.00
C 46.29 352.59 48.47 355.73 50.00 360.00
C 50.72 362.02 50.91 363.05 52.00 365.00
C 53.90 367.52 56.21 370.43 58.00 374.00
C 61.06 380.11 65.39 385.61 70.00 391.00
C 72.99 393.99 76.27 396.81 79.00 400.00
C 84.05 405.05 91.26 409.86 95.00 416.00
C 95.29 416.48 95.67 417.65 96.00 418.00
C 96.32 418.20 96.74 418.76 97.00 419.00
C 102.41 421.54 111.51 428.01 115.00 433.00
C 115.00 433.00 115.52 432.91 116.00 433.00
C 120.89 433.96 128.62 440.46 132.00 444.00
C 132.00 444.00 132.52 443.90 133.00 444.00
C 135.74 444.60 136.97 446.53 139.00 448.00
C 165.78 462.29 196.25 472.56 227.00 475.00
C 230.25 475.26 234.42 475.75 237.00 476.00
C 244.33 476.00 251.67 476.00 259.00 476.00
C 261.73 475.74 265.61 475.07 269.00 475.00
C 284.19 474.70 298.71 471.71 313.00 468.00
C 315.53 467.08 318.01 465.67 321.00 465.00
C 329.49 463.09 336.98 459.46 345.00 456.00
C 349.70 453.27 354.78 450.17 360.00 448.00
C 361.81 447.25 363.15 446.97 365.00 446.00
C 369.56 442.64 374.02 439.74 379.00 437.00
C 381.89 435.41 384.89 433.14 388.00 431.00
C 392.97 426.67 397.97 419.95 404.00 417.00
C 409.33 411.67 415.99 400.93 423.00 398.00
C 424.44 394.00 428.18 391.82 431.00 389.00
C 472.12 336.91 488.55 265.78 472.00 200.00
C 471.25 199.59 469.72 200.46 469.00 200.00
C 483.39 262.85 469.28 334.78 429.30 384.30 C 389.33 433.82 342.69 461.57 281.00 471.00 C 219.31 480.43 147.07 458.06 101.75 417.25 C 56.43 376.44 25.00 321.13 25.00 259.00 Z"/>
</g>
<g fill="None" fill-opacity="0.0" stroke="#659FCD" stroke-opacity="1.00" stroke-width="0.3"><path d="
M 360.00 205.00 
C 343.90 207.16 333.33 223.20 317.00 226.00
C 332.07 225.54 349.70 218.32 360.00 205.00 Z"/>
</g>
<g fill="None" fill-opacity="0.0" stroke="#6496C7" stroke-opacity="1.00" stroke-width="0.3"><path d="
M 185.00 227.00 
C 170.90 222.51 158.57 213.20 145.00 208.00
C 154.42 220.15 171.32 226.54 185.00 227.00 Z"/>
</g>
<g fill="None" fill-opacity="0.0" stroke="#C7E1F0" stroke-opacity="1.00" stroke-width="0.3"><path d="
M 236.00 228.00 
C 236.22 228.03 238.94 230.01 239.00 230.00
C 239.37 229.32 240.54 228.87 241.00 228.00
C 243.63 223.09 244.62 218.68 248.00 214.00
C 251.95 218.74 257.19 213.29 261.08 212.08 C 264.98 210.87 274.16 211.65 274.00 208.00
C 259.55 206.85 238.42 208.94 240.00 228.00
C 238.78 228.32 237.19 227.59 236.00 228.00 Z"/>
</g>
<g fill="None" fill-opacity="0.0" stroke="#7FBFE2" stroke-opacity="1.00" stroke-width="0.3"><path d="
M 241.00 228.00 
C 244.57 227.04 245.52 235.51 243.00 237.00
C 246.50 237.17 249.03 240.19 253.00 239.00
C 251.88 237.94 252.52 237.16 253.00 236.00
C 248.94 237.82 252.47 232.07 252.00 230.00
C 253.88 229.53 256.93 231.06 258.00 229.00
C 258.96 228.56 265.08 225.07 269.00 226.00
C 269.00 227.67 269.00 229.33 269.00 231.00
C 268.91 230.87 274.81 232.44 273.00 236.00
C 271.33 236.00 269.67 236.00 268.00 236.00
C 268.44 236.99 269.00 236.87 270.00 237.00
C 274.74 237.61 279.57 237.31 284.00 238.00
C 279.37 235.19 277.74 232.86 278.00 228.00
C 278.55 217.56 283.40 221.13 289.22 215.22 C 295.04 209.32 276.48 208.00 274.00 208.00
C 274.16 211.65 264.98 210.87 261.08 212.08 C 257.19 213.29 251.95 218.74 248.00 214.00
C 244.62 218.68 243.63 223.09 241.00 228.00 Z"/>
</g>
<g fill="None" fill-opacity="0.0" stroke="#40759A" stroke-opacity="1.00" stroke-width="0.3"><path d="
M 258.00 229.00 
C 259.67 229.00 261.33 229.00 263.00 229.00
C 262.64 231.61 264.52 236.95 260.00 236.00
C 261.59 236.27 263.16 235.95 264.74 238.26 C 266.33 240.57 270.08 236.99 270.00 237.00
C 269.00 236.87 268.44 236.99 268.00 236.00
C 267.29 234.41 268.95 232.59 269.00 231.00
C 269.00 229.33 269.00 227.67 269.00 226.00
C 265.08 225.07 258.96 228.56 258.00 229.00 Z"/>
</g>
<g fill="None" fill-opacity="0.0" stroke="#EEF4F8" stroke-opacity="1.00" stroke-width="0.3"><path d="
M 156.00 242.00 
C 155.25 242.87 154.51 244.01 154.00 245.00
C 155.00 245.11 156.73 244.53 157.00 246.00
C 169.02 247.99 182.81 245.12 194.00 249.00
C 179.71 251.01 187.40 264.44 190.68 273.32 C 193.95 282.21 196.10 292.65 201.00 301.00
C 200.99 300.85 201.92 300.35 202.00 300.00
C 201.00 285.33 194.43 272.26 189.00 259.00
C 197.90 261.97 207.99 259.45 216.00 265.00
C 216.51 265.25 219.87 266.32 221.00 268.00
C 224.22 268.85 227.86 267.21 231.00 267.00
C 234.76 266.33 238.32 266.40 242.00 267.00
C 245.25 267.18 248.20 266.90 250.00 270.00
C 252.14 273.67 250.34 278.49 250.00 282.00
C 250.00 299.83 249.00 317.86 249.00 336.00
C 249.20 338.10 250.00 341.23 250.00 344.00
C 250.00 347.67 250.00 351.33 250.00 355.00
C 250.86 358.15 247.70 365.66 253.00 365.00
C 253.00 356.67 253.00 348.33 253.00 340.00
C 253.00 332.64 252.52 324.26 253.00 317.00 C 253.48 309.74 251.79 299.81 253.00 293.00 C 254.21 286.19 249.79 274.88 254.00 270.00
C 260.09 262.95 278.11 272.28 285.26 264.26 C 292.41 256.23 305.82 259.79 315.00 257.00
C 315.71 256.78 320.48 254.66 321.00 254.00
C 323.44 252.59 320.59 249.77 320.00 248.00
C 322.93 245.69 326.41 246.07 330.00 246.00
C 336.21 245.25 344.46 243.81 351.00 246.00
C 353.80 240.55 342.62 238.05 338.02 236.98 C 333.43 235.90 324.40 233.53 319.01 232.99 C 313.62 232.45 304.91 229.71 299.67 229.33 C 294.43 228.95 282.69 224.95 278.00 228.00
C 277.74 232.86 279.37 235.19 284.00 238.00
C 287.87 240.34 291.27 242.05 295.00 245.00
C 292.90 247.08 288.85 245.50 286.00 246.00
C 283.35 246.00 280.64 245.82 278.00 246.00
C 270.37 246.52 264.12 246.90 256.00 247.00 C 247.88 247.10 243.05 246.55 234.98 245.02 C 226.90 243.50 229.70 236.44 238.00 237.00
C 237.70 236.34 238.67 230.61 239.00 230.00
C 238.94 230.01 236.22 228.03 236.00 228.00
C 227.67 226.66 215.64 230.88 207.07 231.07 C 198.51 231.26 189.29 234.76 181.01 236.01 C 172.73 237.26 162.46 236.89 156.00 242.00 Z"/>
</g>
<g fill="None" fill-opacity="0.0" stroke="#5F94B6" stroke-opacity="1.00" stroke-width="0.3"><path d="
M 239.00 230.00 
C 238.67 230.61 237.70 236.34 238.00 237.00
C 243.24 237.35 247.89 241.16 254.00 240.00
C 254.01 238.37 252.72 237.49 254.00 236.00
C 253.50 236.00 253.00 236.00 253.00 236.00
C 252.52 237.16 251.88 237.94 253.00 239.00
C 249.03 240.19 246.50 237.17 243.00 237.00
C 245.52 235.51 244.57 227.04 241.00 228.00
C 240.54 228.87 239.37 229.32 239.00 230.00 Z"/>
</g>
<g fill="None" fill-opacity="0.0" stroke="#51688C" stroke-opacity="1.00" stroke-width="0.3"><path d="
M 30.00 240.00 
C 30.29 236.99 31.00 232.75 31.00 229.00
C 30.71 232.01 30.00 236.25 30.00 240.00 Z"/>
</g>
<g fill="None" fill-opacity="0.0" stroke="#DBEFF8" stroke-opacity="1.00" stroke-width="0.3"><path d="
M 253.00 236.00 
C 253.00 236.00 253.50 236.00 254.00 236.00
C 255.91 236.00 258.12 235.69 260.00 236.00
C 264.52 236.95 262.64 231.61 263.00 229.00
C 261.33 229.00 259.67 229.00 258.00 229.00
C 256.93 231.06 253.88 229.53 252.00 230.00
C 252.47 232.07 248.94 237.82 253.00 236.00 Z"/>
</g>
<g fill="None" fill-opacity="0.0" stroke="#C2E4F6" stroke-opacity="1.00" stroke-width="0.3"><path d="
M 269.00 231.00 
C 268.95 232.59 267.29 234.41 268.00 236.00
C 269.67 236.00 271.33 236.00 273.00 236.00
C 274.81 232.44 268.91 230.87 269.00 231.00 Z"/>
</g>
<g fill="None" fill-opacity="0.0" stroke="#11305F" stroke-opacity="1.00" stroke-width="0.3"><path d="
M 238.00 237.00 
C 229.70 236.44 226.90 243.50 234.98 245.02 C 243.05 246.55 247.88 247.10 256.00 247.00 C 264.12 246.90 270.37 246.52 278.00 246.00
C 280.79 245.50 283.37 245.75 286.00 246.00
C 288.85 245.50 292.90 247.08 295.00 245.00
C 291.27 242.05 287.87 240.34 284.00 238.00
C 279.57 237.31 274.74 237.61 270.00 237.00
C 270.08 236.99 266.33 240.57 264.74 238.26 C 263.16 235.95 261.59 236.27 260.00 236.00
C 258.12 235.69 255.91 236.00 254.00 236.00
C 252.72 237.49 254.01 238.37 254.00 240.00
C 247.89 241.16 243.24 237.35 238.00 237.00 Z"/>
</g>
<g fill="None" fill-opacity="0.0" stroke="#5F7497" stroke-opacity="1.00" stroke-width="0.3"><path d="
M 469.00 269.00 
C 470.29 259.99 469.88 249.06 469.00 240.00
C 469.00 249.64 469.37 259.37 469.00 269.00 Z"/>
</g>
<g fill="None" fill-opacity="0.0" stroke="#B7CBE2" stroke-opacity="1.00" stroke-width="0.3"><path d="
M 168.00 272.00 
C 167.98 271.91 168.96 271.35 169.00 271.00
C 169.90 262.31 160.55 251.68 157.00 246.00
C 156.73 244.53 155.00 245.11 154.00 245.00
C 154.51 244.01 155.25 242.87 156.00 242.00
C 154.86 242.03 154.28 243.53 153.00 243.00
C 156.59 253.31 162.54 262.51 168.00 272.00 Z"/>
</g>
<g fill="None" fill-opacity="0.0" stroke="#849BBA" stroke-opacity="1.00" stroke-width="0.3"><path d="
M 278.00 246.00 
C 280.64 245.82 283.35 246.00 286.00 246.00
C 283.37 245.75 280.79 245.50 278.00 246.00 Z"/>
</g>
<g fill="None" fill-opacity="0.0" stroke="#7F8FA6" stroke-opacity="1.00" stroke-width="0.3"><path d="
M 330.00 246.00 
C 334.68 245.91 344.43 244.37 348.00 247.00
C 348.30 247.22 349.01 247.67 349.00 248.00
C 349.58 247.26 350.46 247.05 351.00 246.00
C 344.46 243.81 336.21 245.25 330.00 246.00 Z"/>
</g>
<g fill="None" fill-opacity="0.0" stroke="#CAD9ED" stroke-opacity="1.00" stroke-width="0.3"><path d="
M 335.00 274.00 
C 335.36 273.77 336.00 274.00 336.00 274.00
C 340.63 265.93 343.38 255.17 349.00 248.00
C 349.01 247.67 348.30 247.22 348.00 247.00
C 344.57 247.67 340.97 255.60 339.98 258.98 C 338.98 262.36 334.73 270.17 335.00 274.00 Z"/>
</g>
<g fill="None" fill-opacity="0.0" stroke="#11313B" stroke-opacity="0.33" stroke-width="0.3"><path d="
M 23.00 258.00 
C 22.31 260.94 22.81 262.56 23.00 265.00
C 23.22 262.88 23.82 261.22 24.00 259.00
C 23.66 257.44 24.75 254.83 23.00 254.00
C 22.77 255.28 23.30 256.74 23.00 258.00 Z"/>
</g>
<g fill="None" fill-opacity="0.0" stroke="#C1D1E3" stroke-opacity="1.00" stroke-width="0.3"><path d="
M 315.00 257.00 
C 317.34 261.77 309.93 270.45 308.78 277.78 C 307.62 285.10 303.50 293.37 301.78 300.78 C 300.05 308.18 296.37 317.12 297.00 324.00
C 305.09 301.18 315.59 277.79 321.00 254.00
C 320.48 254.66 315.71 256.78 315.00 257.00 Z"/>
</g>
<g fill="None" fill-opacity="0.0" stroke="#546B8D" stroke-opacity="1.00" stroke-width="0.3"><path d="
M 31.00 270.00 
C 31.00 266.91 30.23 263.42 30.00 261.00
C 30.00 264.09 30.77 267.58 31.00 270.00 Z"/>
</g>
<g fill="None" fill-opacity="0.0" stroke="#94C5E8" stroke-opacity="1.00" stroke-width="0.3"><path d="
M 269.00 360.00 
C 269.12 361.51 271.09 364.84 271.00 363.00
C 288.25 331.61 298.57 297.79 298.00 261.00
C 279.68 290.60 273.93 325.50 269.00 360.00 Z"/>
</g>
<g fill="None" fill-opacity="0.0" stroke="#BFD2E8" stroke-opacity="1.00" stroke-width="0.3"><path d="
M 216.00 265.00 
C 224.66 271.00 220.11 286.26 223.22 295.78 C 226.33 305.30 226.08 318.54 227.00 329.00 C 227.92 339.46 229.41 349.52 234.00 359.00
C 234.01 358.82 234.96 358.35 235.00 358.00
C 232.16 348.65 230.00 339.08 230.00 329.00
C 229.58 324.63 229.10 319.04 229.00 314.00
C 228.84 306.16 227.11 297.48 226.00 290.00 C 224.88 282.53 225.21 274.26 221.00 268.00
C 219.87 266.32 216.51 265.25 216.00 265.00 Z"/>
</g>
<g fill="None" fill-opacity="0.0" stroke="#7C8DAB" stroke-opacity="1.00" stroke-width="0.3"><path d="
M 231.00 267.00 
C 234.57 266.76 238.43 266.81 242.00 267.00
C 238.32 266.40 234.76 266.33 231.00 267.00 Z"/>
</g>
<g fill="None" fill-opacity="0.0" stroke="#596C8A" stroke-opacity="1.00" stroke-width="0.3"><path d="
M 250.00 282.00 
C 250.34 278.49 252.14 273.67 250.00 270.00
C 251.15 272.98 250.00 278.77 250.00 282.00 Z"/>
</g>
<g fill="None" fill-opacity="0.0" stroke="#53647E" stroke-opacity="1.00" stroke-width="0.3"><path d="
M 253.00 340.00 
C 253.64 333.34 253.82 324.31 254.00 317.00 C 254.18 309.69 252.75 299.84 254.00 293.00 C 255.25 286.16 250.64 275.59 254.00 270.00
C 249.79 274.88 254.21 286.19 253.00 293.00 C 251.79 299.81 253.48 309.74 253.00 317.00 C 252.52 324.26 253.00 332.64 253.00 340.00 Z"/>
</g>
<g fill="None" fill-opacity="0.0" stroke="#6887B7" stroke-opacity="1.00" stroke-width="0.3"><path d="
M 168.00 272.00 
C 170.18 273.74 169.47 278.20 173.00 278.00
C 171.88 275.66 169.84 273.22 169.00 271.00
C 168.96 271.35 167.98 271.91 168.00 272.00 Z"/>
</g>
<g fill="None" fill-opacity="0.0" stroke="#5976A7" stroke-opacity="1.00" stroke-width="0.3"><path d="
M 336.00 274.00 
C 336.00 274.00 335.36 273.77 335.00 274.00
C 333.25 274.39 332.70 276.43 333.00 278.00
C 334.84 277.51 335.17 275.42 336.00 274.00 Z"/>
</g>
<g fill="None" fill-opacity="0.0" stroke="#193C4A" stroke-opacity="0.38" stroke-width="0.3"><path d="
M 25.00 291.00 
C 25.08 286.32 24.00 283.29 23.00 279.00
C 23.35 282.74 24.29 287.27 25.00 291.00 Z"/>
</g>
<g fill="None" fill-opacity="0.0" stroke="#8CA2CE" stroke-opacity="1.00" stroke-width="0.3"><path d="
M 201.00 301.00 
C 201.85 302.44 202.18 304.40 204.00 305.00
C 204.09 303.58 203.60 300.46 202.00 300.00
C 201.92 300.35 200.99 300.85 201.00 301.00 Z"/>
</g>
<g fill="None" fill-opacity="0.0" stroke="#667A94" stroke-opacity="1.00" stroke-width="0.3"><path d="
M 230.00 329.00 
C 230.00 323.90 229.54 318.43 229.00 314.00
C 229.10 319.04 229.58 324.63 230.00 329.00 Z"/>
</g>
<g fill="None" fill-opacity="0.0" stroke="#8E9EBF" stroke-opacity="1.00" stroke-width="0.3"><path d="
M 249.00 344.00 
C 249.00 343.96 250.00 344.00 250.00 344.00
C 250.00 341.23 249.20 338.10 249.00 336.00
C 249.00 338.67 249.00 341.33 249.00 344.00 Z"/>
</g>
<g fill="None" fill-opacity="0.0" stroke="#5E7092" stroke-opacity="1.00" stroke-width="0.3"><path d="
M 250.00 355.00 
C 250.00 351.33 250.00 347.67 250.00 344.00
C 250.00 344.00 249.00 343.96 249.00 344.00
C 249.00 347.75 249.70 351.92 250.00 355.00 Z"/>
</g>
<g fill="None" fill-opacity="0.0" stroke="#294549" stroke-opacity="0.22" stroke-width="0.3"><path d="
M 50.00 360.00 
C 48.47 355.73 46.29 352.59 44.00 349.00
C 45.70 352.93 48.13 356.46 50.00 360.00 Z"/>
</g>
<g fill="None" fill-opacity="0.0" stroke="#7594BD" stroke-opacity="1.00" stroke-width="0.3"><path d="
M 234.00 359.00 
C 235.26 360.61 234.61 363.32 237.00 364.00
C 236.93 361.87 235.50 359.65 235.00 358.00
C 234.96 358.35 234.01 358.82 234.00 359.00 Z"/>
</g>
<g fill="None" fill-opacity="0.0" stroke="#5679AB" stroke-opacity="1.00" stroke-width="0.3"><path d="
M 271.00 363.00 
C 271.09 364.84 269.12 361.51 269.00 360.00
C 266.86 361.38 268.52 364.81 268.00 367.00
C 269.84 366.51 270.17 364.42 271.00 363.00 Z"/>
</g>
<g fill="None" fill-opacity="0.0" stroke="#315057" stroke-opacity="0.20" stroke-width="0.3"><path d="
M 58.00 374.00 
C 56.21 370.43 53.90 367.52 52.00 365.00
C 53.79 368.19 56.19 371.10 58.00 374.00 Z"/>
</g>
<g fill="None" fill-opacity="0.0" stroke="#2E4851" stroke-opacity="0.22" stroke-width="0.3"><path d="
M 423.00 398.00 
C 422.84 398.44 423.00 399.00 423.00 399.00
C 425.54 395.82 428.35 392.35 431.00 389.00
C 428.18 391.82 424.44 394.00 423.00 398.00 Z"/>
</g>
<g fill="None" fill-opacity="0.0" stroke="#466060" stroke-opacity="0.11" stroke-width="0.3"><path d="
M 96.00 418.00 
C 95.67 417.65 95.29 416.48 95.00 416.00
C 89.92 410.55 83.84 405.66 79.00 400.00
C 76.27 396.81 72.99 393.99 70.00 391.00
C 77.39 399.65 86.01 411.83 96.00 418.00 Z"/>
</g>
<g fill="None" fill-opacity="0.0" stroke="#607592" stroke-opacity="1.00" stroke-width="0.3"><path d="
M 98.00 408.00 
C 93.80 403.80 89.25 399.25 85.00 395.00
C 88.94 399.61 93.69 403.69 98.00 408.00 Z"/>
</g>
<g fill="None" fill-opacity="0.0" stroke="#2F4E5B" stroke-opacity="0.36" stroke-width="0.3"><path d="
M 404.00 417.00 
C 404.40 416.80 405.00 417.00 405.00 417.00
C 405.66 416.44 406.40 415.63 407.00 415.00
C 411.49 410.28 415.84 404.95 421.00 401.00
C 421.72 400.45 422.82 400.15 423.00 399.00
C 423.00 399.00 422.84 398.44 423.00 398.00
C 415.99 400.93 409.33 411.67 404.00 417.00 Z"/>
</g>
<g fill="None" fill-opacity="0.0" stroke="#374E5B" stroke-opacity="0.62" stroke-width="0.3"><path d="
M 95.00 416.00 
C 91.26 409.86 84.05 405.05 79.00 400.00
C 83.84 405.66 89.92 410.55 95.00 416.00 Z"/>
</g>
<g fill="None" fill-opacity="0.0" stroke="#346263" stroke-opacity="0.03" stroke-width="0.3"><path d="
M 407.00 415.00 
C 412.08 410.88 416.35 405.61 421.00 401.00
C 415.84 404.95 411.49 410.28 407.00 415.00 Z"/>
</g>
<g fill="None" fill-opacity="0.0" stroke="#A2B4CB" stroke-opacity="1.00" stroke-width="0.3"><path d="
M 105.00 415.00 
C 102.80 413.19 100.10 410.10 98.00 408.00
C 100.29 410.29 102.21 413.05 105.00 415.00 Z"/>
</g>
<g fill="None" fill-opacity="0.0" stroke="#465F6B" stroke-opacity="0.12" stroke-width="0.3"><path d="
M 388.00 431.00 
C 394.01 426.87 399.48 421.69 405.00 417.00
C 405.00 417.00 404.40 416.80 404.00 417.00
C 397.97 419.95 392.97 426.67 388.00 431.00 Z"/>
</g>
<g fill="None" fill-opacity="0.0" stroke="#495E64" stroke-opacity="0.11" stroke-width="0.3"><path d="
M 115.00 433.00 
C 111.51 428.01 102.41 421.54 97.00 419.00
C 102.58 424.14 108.91 428.35 115.00 433.00 Z"/>
</g>
<g fill="None" fill-opacity="0.0" stroke="#4D5F67" stroke-opacity="0.19" stroke-width="0.3"><path d="
M 132.00 444.00 
C 128.62 440.46 120.89 433.96 116.00 433.00
C 120.03 437.20 126.42 441.81 132.00 444.00 Z"/>
</g>
<g fill="None" fill-opacity="0.0" stroke="#4B616F" stroke-opacity="0.15" stroke-width="0.3"><path d="
M 365.00 446.00 
C 370.02 443.38 374.44 440.09 379.00 437.00
C 374.02 439.74 369.56 442.64 365.00 446.00 Z"/>
</g>
<g fill="None" fill-opacity="0.0" stroke="#4E616B" stroke-opacity="0.18" stroke-width="0.3"><path d="
M 139.00 448.00 
C 136.97 446.53 135.74 444.60 133.00 444.00
C 134.38 446.21 136.75 446.80 139.00 448.00 Z"/>
</g>
<g fill="None" fill-opacity="0.0" stroke="#365766" stroke-opacity="0.12" stroke-width="0.3"><path d="
M 345.00 456.00 
C 350.28 453.72 355.16 450.55 360.00 448.00
C 354.78 450.17 349.70 453.27 345.00 456.00 Z"/>
</g>
<g fill="None" fill-opacity="0.0" stroke="#3E5D6A" stroke-opacity="0.12" stroke-width="0.3"><path d="
M 313.00 468.00 
C 315.86 467.26 318.56 465.79 321.00 465.00
C 318.01 465.67 315.53 467.08 313.00 468.00 Z"/>
</g>
<g fill="None" fill-opacity="0.0" stroke="#768A97" stroke-opacity="0.13" stroke-width="0.3"><path d="
M 237.00 476.00 
C 234.42 475.75 230.25 475.26 227.00 475.00
C 229.89 475.56 233.42 476.00 237.00 476.00 Z"/>
</g>
<g fill="None" fill-opacity="0.0" stroke="#41646E" stroke-opacity="0.12" stroke-width="0.3"><path d="
M 259.00 476.00 
C 262.47 476.00 266.19 475.34 269.00 475.00
C 265.61 475.07 261.73 475.74 259.00 476.00 Z"/>
</g>
<g fill="#000000" fill-opacity="0.00" stroke="None">
<path d="
M 0.00 500.00 
L 500.00 500.00
L 500.00 0.00
L 0.00 0.00
L 0.00 500.00
M 448.00 143.00 
C 460.47 159.77 466.93 179.85 472.00 200.00
C 488.55 265.78 472.12 336.91 431.00 389.00
C 428.35 392.35 425.54 395.82 423.00 399.00
C 422.82 400.15 421.72 400.45 421.00 401.00
C 416.35 405.61 412.08 410.88 407.00 415.00
C 406.40 415.63 405.66 416.44 405.00 417.00
C 399.48 421.69 394.01 426.87 388.00 431.00
C 384.89 433.14 381.89 435.41 379.00 437.00
C 374.44 440.09 370.02 443.38 365.00 446.00
C 363.15 446.97 361.81 447.25 360.00 448.00
C 355.16 450.55 350.28 453.72 345.00 456.00
C 336.98 459.46 329.49 463.09 321.00 465.00
C 318.56 465.79 315.86 467.26 313.00 468.00
C 298.71 471.71 284.19 474.70 269.00 475.00
C 266.19 475.34 262.47 476.00 259.00 476.00
C 251.67 476.00 244.33 476.00 237.00 476.00
C 233.42 476.00 229.89 475.56 227.00 475.00
C 196.25 472.56 165.78 462.29 139.00 448.00
C 136.75 446.80 134.38 446.21 133.00 444.00
C 132.52 443.90 132.00 444.00 132.00 444.00
C 126.42 441.81 120.03 437.20 116.00 433.00
C 115.52 432.91 115.00 433.00 115.00 433.00
C 108.91 428.35 102.58 424.14 97.00 419.00
C 96.74 418.76 96.32 418.20 96.00 418.00
C 86.01 411.83 77.39 399.65 70.00 391.00
C 65.39 385.61 61.06 380.11 58.00 374.00
C 56.19 371.10 53.79 368.19 52.00 365.00
C 50.91 363.05 50.72 362.02 50.00 360.00
C 48.13 356.46 45.70 352.93 44.00 349.00
C 35.72 329.82 28.91 311.63 25.00 291.00
C 24.29 287.27 23.35 282.74 23.00 279.00
C 22.59 274.63 22.55 269.37 23.00 265.00
C 22.81 262.56 22.31 260.94 23.00 258.00
C 22.90 223.68 23.49 186.58 44.00 159.00
C 76.52 83.66 157.43 28.00 240.00 28.00
C 246.33 28.00 252.67 28.00 259.00 28.00
C 297.75 28.00 343.92 42.79 374.75 64.25 C 405.57 85.72 432.59 109.29 448.00 143.00 Z"/>
</g>
<g fill="#D7E1E9" fill-opacity="0.97" stroke="None">
<path d="
M 44.00 159.00 
C 30.03 191.36 25.00 222.50 25.00 259.00
C 25.00 321.13 56.43 376.44 101.75 417.25 C 147.07 458.06 219.31 480.43 281.00 471.00 C 342.69 461.57 389.33 433.82 429.30 384.30 C 469.28 334.78 483.39 262.85 469.00 200.00
C 464.43 180.05 456.48 161.54 448.00 143.00
C 432.59 109.29 405.57 85.72 374.75 64.25 C 343.92 42.79 297.75 28.00 259.00 28.00
C 253.02 28.58 245.91 28.57 240.00 28.00
C 157.43 28.00 76.52 83.66 44.00 159.00
M 256.00 33.00 
C 365.52 33.00 469.00 128.39 469.00 240.00
C 469.88 249.06 470.29 259.99 469.00 269.00
C 466.96 322.35 441.08 369.17 402.25 407.25 C 363.42 445.33 313.35 464.12 258.00 468.00 C 202.65 471.88 148.89 445.72 105.00 415.00
C 102.21 413.05 100.29 410.29 98.00 408.00
C 93.69 403.69 88.94 399.61 85.00 395.00
C 55.83 360.86 31.00 315.89 31.00 270.00
C 30.77 267.58 30.00 264.09 30.00 261.00
C 30.00 254.00 30.00 247.00 30.00 240.00
C 30.00 236.25 30.71 232.01 31.00 229.00
C 31.00 180.00 60.11 135.14 91.00 99.00
C 93.49 96.09 96.14 93.44 99.00 91.00
C 139.46 56.43 187.81 33.00 242.00 33.00
C 246.40 32.57 251.66 32.58 256.00 33.00 Z"/>
</g>
<g fill="#F3F7F7" fill-opacity="0.85" stroke="None">
<path d="
M 259.00 28.00 
C 252.67 28.00 246.33 28.00 240.00 28.00
C 245.91 28.57 253.02 28.58 259.00 28.00 Z"/>
</g>
<g fill="#5F7398" fill-opacity="1.00" stroke="None">
<path d="
M 242.00 33.00 
C 246.67 33.00 251.33 33.00 256.00 33.00
C 251.66 32.58 246.40 32.57 242.00 33.00 Z"/>
</g>
<g fill="#03255A" fill-opacity="1.00" stroke="None">
<path d="
M 99.00 91.00 
C 96.41 93.59 93.54 96.46 91.00 99.00
C 60.11 135.14 31.00 180.00 31.00 229.00
C 31.00 232.75 30.29 236.99 30.00 240.00
C 30.00 247.00 30.00 254.00 30.00 261.00
C 30.23 263.42 31.00 266.91 31.00 270.00
C 31.00 315.89 55.83 360.86 85.00 395.00
C 89.25 399.25 93.80 403.80 98.00 408.00
C 100.10 410.10 102.80 413.19 105.00 415.00
C 148.89 445.72 202.65 471.88 258.00 468.00 C 313.35 464.12 363.42 445.33 402.25 407.25 C 441.08 369.17 466.96 322.35 469.00 269.00
C 469.37 259.37 469.00 249.64 469.00 240.00
C 469.00 128.39 365.52 33.00 256.00 33.00
C 251.33 33.00 246.67 33.00 242.00 33.00
C 187.81 33.00 139.46 56.43 99.00 91.00
M 398.00 147.00 
C 394.44 144.21 395.43 146.27 393.00 146.00
C 390.10 149.71 389.06 156.01 386.00 160.00
C 379.51 168.46 374.36 178.16 369.00 187.00
C 365.93 184.40 370.83 181.18 370.00 178.00
C 361.67 180.06 354.32 185.96 349.00 193.00
C 346.51 195.91 343.49 200.30 340.00 202.00
C 339.60 202.20 339.00 202.00 339.00 202.00
C 322.33 212.37 304.57 223.71 284.00 223.00
C 295.94 215.38 308.82 208.64 322.00 203.00
C 338.14 195.87 346.61 187.40 357.00 173.00
C 360.63 167.97 363.40 163.09 369.00 160.00
C 369.25 159.74 369.25 158.21 369.00 158.00
C 367.38 156.63 363.97 155.67 362.00 155.00
C 359.28 154.07 353.55 150.93 351.00 153.00
C 346.57 158.17 347.18 168.58 339.77 171.77 C 332.36 174.96 328.11 181.98 319.99 182.99 C 311.87 184.00 305.35 188.06 297.92 190.92 C 290.50 193.79 283.93 199.18 276.00 200.00
C 276.22 198.07 280.90 196.45 279.00 195.00
C 276.19 197.07 275.14 197.00 272.00 198.00
C 268.30 199.18 262.51 197.08 258.25 192.75 C 254.00 188.42 249.16 185.86 244.00 184.00
C 241.59 183.13 238.56 182.60 236.00 182.00
C 222.10 178.71 209.97 177.47 198.00 169.00
C 187.51 161.58 185.55 149.39 182.00 138.00
C 182.16 138.51 180.45 135.66 181.00 136.00
C 171.79 135.18 164.17 145.24 158.00 151.00
C 156.90 152.02 154.28 155.78 153.00 156.00
C 167.89 169.84 183.21 182.26 199.00 194.00
C 203.55 197.38 206.87 202.40 211.00 206.00
C 219.49 212.31 230.14 215.39 239.00 221.00
C 232.98 230.11 219.97 220.88 211.31 218.69 C 202.64 216.51 194.61 209.63 186.77 205.23 C 178.93 200.83 168.26 196.99 166.00 187.00
C 160.06 175.87 152.97 168.98 144.78 160.22 C 136.58 151.47 125.93 147.26 118.00 139.00
C 117.83 138.82 116.91 136.95 117.00 137.00
C 108.42 136.89 101.93 147.65 95.75 153.75 C 89.58 159.86 82.60 166.41 77.25 174.25 C 71.89 182.09 66.37 187.36 60.25 196.25 C 54.13 205.13 39.06 209.02 42.93 195.93 C 46.80 182.83 49.24 178.07 53.31 167.31 C 57.37 156.54 61.60 150.55 66.31 141.31 C 71.01 132.06 76.92 126.59 82.75 118.75 C 88.59 110.91 94.16 105.04 101.25 98.25 C 108.34 91.46 114.50 86.02 122.25 80.25 C 130.00 74.48 137.64 70.09 146.23 65.23 C 154.82 60.37 163.49 56.74 173.07 53.07 C 182.66 49.41 192.63 46.81 203.07 44.07 C 213.51 41.34 226.74 40.72 238.00 40.00 C 249.26 39.28 263.61 38.61 274.67 40.33 C 285.73 42.05 296.84 44.06 307.02 46.98 C 317.20 49.89 326.89 52.72 336.07 56.93 C 345.25 61.13 353.27 65.71 361.70 70.30 C 370.12 74.90 377.41 80.41 384.75 86.25 C 392.09 92.10 398.88 97.91 405.25 104.75 C 411.62 111.59 417.86 118.67 422.92 126.08 C 427.98 133.49 434.59 141.98 438.25 149.75 C 441.92 157.51 448.57 169.34 449.98 177.02 C 451.38 184.71 462.56 200.01 455.25 205.25 C 447.94 210.49 437.89 194.78 434.25 188.75 C 430.60 182.73 420.90 174.39 416.75 167.25 C 412.60 160.11 403.96 152.97 398.00 147.00
M 360.00 205.00 
C 349.70 218.32 332.07 225.54 317.00 226.00
C 333.33 223.20 343.90 207.16 360.00 205.00
M 185.00 227.00 
C 171.32 226.54 154.42 220.15 145.00 208.00
C 158.57 213.20 170.90 222.51 185.00 227.00
M 278.00 228.00 
C 282.69 224.95 294.43 228.95 299.67 229.33 C 304.91 229.71 313.62 232.45 319.01 232.99 C 324.40 233.53 333.43 235.90 338.02 236.98 C 342.62 238.05 353.80 240.55 351.00 246.00
C 350.46 247.05 349.58 247.26 349.00 248.00
C 343.38 255.17 340.63 265.93 336.00 274.00
C 335.17 275.42 334.84 277.51 333.00 278.00
C 332.70 276.43 333.25 274.39 335.00 274.00
C 334.73 270.17 338.98 262.36 339.98 258.98 C 340.97 255.60 344.57 247.67 348.00 247.00
C 344.43 244.37 334.68 245.91 330.00 246.00
C 326.41 246.07 322.93 245.69 320.00 248.00
C 320.59 249.77 323.44 252.59 321.00 254.00
C 315.59 277.79 305.09 301.18 297.00 324.00
C 296.37 317.12 300.05 308.18 301.78 300.78 C 303.50 293.37 307.62 285.10 308.78 277.78 C 309.93 270.45 317.34 261.77 315.00 257.00
C 305.82 259.79 292.41 256.23 285.26 264.26 C 278.11 272.28 260.09 262.95 254.00 270.00
C 250.64 275.59 255.25 286.16 254.00 293.00 C 252.75 299.84 254.18 309.69 254.00 317.00 C 253.82 324.31 253.64 333.34 253.00 340.00
C 253.00 348.33 253.00 356.67 253.00 365.00
C 247.70 365.66 250.86 358.15 250.00 355.00
C 249.70 351.92 249.00 347.75 249.00 344.00
C 249.00 341.33 249.00 338.67 249.00 336.00
C 249.00 317.86 250.00 299.83 250.00 282.00
C 250.00 278.77 251.15 272.98 250.00 270.00
C 248.20 266.90 245.25 267.18 242.00 267.00
C 238.43 266.81 234.57 266.76 231.00 267.00
C 227.86 267.21 224.22 268.85 221.00 268.00
C 225.21 274.26 224.88 282.53 226.00 290.00 C 227.11 297.48 228.84 306.16 229.00 314.00
C 229.54 318.43 230.00 323.90 230.00 329.00
C 230.00 339.08 232.16 348.65 235.00 358.00
C 235.50 359.65 236.93 361.87 237.00 364.00
C 234.61 363.32 235.26 360.61 234.00 359.00
C 229.41 349.52 227.92 339.46 227.00 329.00 C 226.08 318.54 226.33 305.30 223.22 295.78 C 220.11 286.26 224.66 271.00 216.00 265.00
C 207.99 259.45 197.90 261.97 189.00 259.00
C 194.43 272.26 201.00 285.33 202.00 300.00
C 203.60 300.46 204.09 303.58 204.00 305.00
C 202.18 304.40 201.85 302.44 201.00 301.00
C 196.10 292.65 193.95 282.21 190.68 273.32 C 187.40 264.44 179.71 251.01 194.00 249.00
C 182.81 245.12 169.02 247.99 157.00 246.00
C 160.55 251.68 169.90 262.31 169.00 271.00
C 169.84 273.22 171.88 275.66 173.00 278.00
C 169.47 278.20 170.18 273.74 168.00 272.00
C 162.54 262.51 156.59 253.31 153.00 243.00
C 154.28 243.53 154.86 242.03 156.00 242.00
C 162.46 236.89 172.73 237.26 181.01 236.01 C 189.29 234.76 198.51 231.26 207.07 231.07 C 215.64 230.88 227.67 226.66 236.00 228.00
C 237.19 227.59 238.78 228.32 240.00 228.00
C 238.42 208.94 259.55 206.85 274.00 208.00
C 276.48 208.00 295.04 209.32 289.22 215.22 C 283.40 221.13 278.55 217.56 278.00 228.00
M 271.00 363.00 
C 270.17 364.42 269.84 366.51 268.00 367.00
C 268.52 364.81 266.86 361.38 269.00 360.00
C 273.93 325.50 279.68 290.60 298.00 261.00
C 298.57 297.79 288.25 331.61 271.00 363.00 Z"/>
</g>
<g fill="#6CBDE9" fill-opacity="1.00" stroke="None">
<path d="
M 117.00 137.00 
C 122.22 137.06 128.40 141.01 132.75 144.25 C 137.10 147.50 143.93 149.64 148.00 153.00
C 148.91 153.75 149.85 154.39 151.00 155.00
C 151.02 154.44 157.03 151.72 158.00 151.00
C 164.17 145.24 171.79 135.18 181.00 136.00
C 188.84 136.70 200.70 151.26 204.00 158.00
C 204.55 158.51 205.41 158.63 206.00 159.00
C 209.36 157.31 208.85 146.85 213.75 144.75 C 218.66 142.66 220.33 135.03 226.08 134.08 C 231.83 133.13 234.77 127.82 241.08 127.08 C 247.39 126.35 256.29 125.79 263.22 127.78 C 270.15 129.77 271.52 128.66 279.69 133.31 C 287.87 137.95 296.85 148.73 301.30 156.70 C 305.75 164.67 305.29 169.13 304.67 175.67 C 304.05 182.21 295.44 181.34 292.25 185.25 C 289.07 189.17 282.90 192.13 279.00 195.00
C 280.90 196.45 276.22 198.07 276.00 200.00
C 283.93 199.18 290.50 193.79 297.92 190.92 C 305.35 188.06 311.87 184.00 319.99 182.99 C 328.11 181.98 332.36 174.96 339.77 171.77 C 347.18 168.58 346.57 158.17 351.00 153.00
C 354.75 148.63 358.55 153.01 362.00 155.00
C 363.97 155.67 367.38 156.63 369.00 158.00
C 371.73 156.26 376.61 156.75 375.00 157.00
C 376.06 156.32 376.30 155.96 377.00 155.00
C 382.89 146.92 389.52 138.52 398.00 147.00
C 403.96 152.97 412.60 160.11 416.75 167.25 C 420.90 174.39 430.60 182.73 434.25 188.75 C 437.89 194.78 447.94 210.49 455.25 205.25 C 462.56 200.01 451.38 184.71 449.98 177.02 C 448.57 169.34 441.92 157.51 438.25 149.75 C 434.59 141.98 427.98 133.49 422.92 126.08 C 417.86 118.67 411.62 111.59 405.25 104.75 C 398.88 97.91 392.09 92.10 384.75 86.25 C 377.41 80.41 370.12 74.90 361.70 70.30 C 353.27 65.71 345.25 61.13 336.07 56.93 C 326.89 52.72 317.20 49.89 307.02 46.98 C 296.84 44.06 285.73 42.05 274.67 40.33 C 263.61 38.61 249.26 39.28 238.00 40.00 C 226.74 40.72 213.51 41.34 203.07 44.07 C 192.63 46.81 182.66 49.41 173.07 53.07 C 163.49 56.74 154.82 60.37 146.23 65.23 C 137.64 70.09 130.00 74.48 122.25 80.25 C 114.50 86.02 108.34 91.46 101.25 98.25 C 94.16 105.04 88.59 110.91 82.75 118.75 C 76.92 126.59 71.01 132.06 66.31 141.31 C 61.60 150.55 57.37 156.54 53.31 167.31 C 49.24 178.07 46.80 182.83 42.93 195.93 C 39.06 209.02 54.13 205.13 60.25 196.25 C 66.37 187.36 71.89 182.09 77.25 174.25 C 82.60 166.41 89.58 159.86 95.75 153.75 C 101.93 147.65 108.42 136.89 117.00 137.00
M 342.00 159.00 
C 341.03 161.32 340.84 167.71 334.00 165.00
C 334.25 163.12 336.55 163.54 337.00 162.00
C 340.46 157.87 343.50 152.59 349.00 152.00
C 347.20 154.62 343.37 155.80 342.00 159.00
M 311.00 173.00 
C 309.18 175.90 306.17 178.19 303.00 179.00
C 304.95 176.35 307.95 173.97 311.00 173.00 Z"/>
</g>
<g fill="#6E819C" fill-opacity="1.00" stroke="None">
<path d="
M 91.00 99.00 
C 93.54 96.46 96.41 93.59 99.00 91.00
C 96.14 93.44 93.49 96.09 91.00 99.00 Z"/>
</g>
<g fill="#FAFDFC" fill-opacity="1.00" stroke="None">
<path d="
M 206.00 159.00 
C 218.59 166.84 230.80 174.25 244.00 181.00
C 248.50 183.30 253.49 187.28 258.23 188.77 C 262.97 190.26 267.82 197.11 272.00 198.00
C 275.14 197.00 276.19 197.07 279.00 195.00
C 282.90 192.13 289.07 189.17 292.25 185.25 C 295.44 181.34 304.05 182.21 304.67 175.67 C 305.29 169.13 305.75 164.67 301.30 156.70 C 296.85 148.73 287.87 137.95 279.69 133.31 C 271.52 128.66 270.15 129.77 263.22 127.78 C 256.29 125.79 247.39 126.35 241.08 127.08 C 234.77 127.82 231.83 133.13 226.08 134.08 C 220.33 135.03 218.66 142.66 213.75 144.75 C 208.85 146.85 209.36 157.31 206.00 159.00 Z"/>
</g>
<g fill="#436C85" fill-opacity="1.00" stroke="None">
<path d="
M 182.00 138.00 
C 190.43 141.67 196.43 152.27 204.00 159.00
C 203.77 158.66 204.00 158.00 204.00 158.00
C 200.70 151.26 188.84 136.70 181.00 136.00
C 180.45 135.66 182.16 138.51 182.00 138.00 Z"/>
</g>
<g fill="#507F9A" fill-opacity="1.00" stroke="None">
<path d="
M 118.00 139.00 
C 126.41 143.47 138.65 148.15 148.00 153.00
C 143.93 149.64 137.10 147.50 132.75 144.25 C 128.40 141.01 122.22 137.06 117.00 137.00
C 116.91 136.95 117.83 138.82 118.00 139.00 Z"/>
</g>
<g fill="#BCD9EC" fill-opacity="1.00" stroke="None">
<path d="
M 182.00 138.00 
C 185.55 149.39 187.51 161.58 198.00 169.00
C 201.70 168.11 199.33 163.11 200.00 160.00
C 212.35 166.42 225.02 173.46 236.00 182.00
C 238.56 182.60 241.59 183.13 244.00 184.00
C 244.55 184.54 243.67 182.49 243.00 182.00
C 231.11 173.40 215.20 168.95 204.00 159.00
C 196.43 152.27 190.43 141.67 182.00 138.00 Z"/>
</g>
<g fill="#BAD8ED" fill-opacity="1.00" stroke="None">
<path d="
M 118.00 139.00 
C 125.93 147.26 136.58 151.47 144.78 160.22 C 152.97 168.98 160.06 175.87 166.00 187.00
C 168.72 188.41 166.88 185.85 169.00 186.00
C 170.33 186.09 172.11 188.42 173.00 189.00
C 178.26 192.45 184.45 194.20 190.00 197.00
C 196.34 200.21 202.38 203.54 209.00 206.00
C 207.89 203.59 205.04 202.38 204.00 200.00
C 202.44 198.17 200.75 195.53 199.00 194.00
C 183.21 182.26 167.89 169.84 153.00 156.00
C 152.46 155.49 151.62 155.33 151.00 155.00
C 149.85 154.39 148.91 153.75 148.00 153.00
C 138.65 148.15 126.41 143.47 118.00 139.00 Z"/>
</g>
<g fill="#5585A2" fill-opacity="1.00" stroke="None">
<path d="
M 377.00 155.00 
C 380.08 152.03 384.76 150.16 387.25 146.25 C 389.73 142.34 392.00 145.89 393.00 146.00
C 395.43 146.27 394.44 144.21 398.00 147.00
C 389.52 138.52 382.89 146.92 377.00 155.00 Z"/>
</g>
<g fill="#24313F" fill-opacity="0.74" stroke="None">
<path d="
M 469.00 200.00 
C 469.72 200.46 471.25 199.59 472.00 200.00
C 466.93 179.85 460.47 159.77 448.00 143.00
C 456.48 161.54 464.43 180.05 469.00 200.00 Z"/>
</g>
<g fill="#DEEBF5" fill-opacity="1.00" stroke="None">
<path d="
M 377.00 155.00 
C 376.30 155.96 376.06 156.32 375.00 157.00
C 373.10 158.21 370.97 158.92 369.00 160.00
C 363.40 163.09 360.63 167.97 357.00 173.00
C 360.10 170.59 365.68 168.65 368.92 163.92 C 372.16 159.19 381.49 162.49 386.00 160.00
C 389.06 156.01 390.10 149.71 393.00 146.00
C 392.00 145.89 389.73 142.34 387.25 146.25 C 384.76 150.16 380.08 152.03 377.00 155.00 Z"/>
</g>
<g fill="#2D587E" fill-opacity="1.00" stroke="None">
<path d="
M 151.00 155.00 
C 151.62 155.33 152.46 155.49 153.00 156.00
C 154.28 155.78 156.90 152.02 158.00 151.00
C 157.03 151.72 151.02 154.44 151.00 155.00 Z"/>
</g>
<g fill="#4079A8" fill-opacity="1.00" stroke="None">
<path d="
M 351.00 153.00 
C 353.55 150.93 359.28 154.07 362.00 155.00
C 358.55 153.01 354.75 148.63 351.00 153.00 Z"/>
</g>
<g fill="#3F7DA4" fill-opacity="1.00" stroke="None">
<path d="
M 337.00 162.00 
C 338.46 160.80 340.54 160.27 342.00 159.00
C 343.37 155.80 347.20 154.62 349.00 152.00
C 343.50 152.59 340.46 157.87 337.00 162.00 Z"/>
</g>
<g fill="#416782" fill-opacity="1.00" stroke="None">
<path d="
M 369.00 158.00 
C 369.25 158.21 369.25 159.74 369.00 160.00
C 370.97 158.92 373.10 158.21 375.00 157.00
C 376.61 156.75 371.73 156.26 369.00 158.00 Z"/>
</g>
<g fill="#6C828E" fill-opacity="1.00" stroke="None">
<path d="
M 204.00 159.00 
C 215.20 168.95 231.11 173.40 243.00 182.00
C 243.33 182.01 243.85 180.99 244.00 181.00
C 230.80 174.25 218.59 166.84 206.00 159.00
C 205.41 158.63 204.55 158.51 204.00 158.00
C 204.00 158.00 203.77 158.66 204.00 159.00 Z"/>
</g>
<g fill="#1B2935" fill-opacity="0.71" stroke="None">
<path d="
M 23.00 258.00 
C 23.30 256.74 22.77 255.28 23.00 254.00
C 24.75 254.83 23.66 257.44 24.00 259.00
C 24.00 258.96 25.00 259.00 25.00 259.00
C 25.00 222.50 30.03 191.36 44.00 159.00
C 23.49 186.58 22.90 223.68 23.00 258.00 Z"/>
</g>
<g fill="#BAE6FA" fill-opacity="1.00" stroke="None">
<path d="
M 337.00 162.00 
C 336.55 163.54 334.25 163.12 334.00 165.00
C 340.84 167.71 341.03 161.32 342.00 159.00
C 340.54 160.27 338.46 160.80 337.00 162.00 Z"/>
</g>
<g fill="#75B6DD" fill-opacity="1.00" stroke="None">
<path d="
M 198.00 169.00 
C 209.97 177.47 222.10 178.71 236.00 182.00
C 225.02 173.46 212.35 166.42 200.00 160.00
C 199.33 163.11 201.70 168.11 198.00 169.00 Z"/>
</g>
<g fill="#AFD1EC" fill-opacity="1.00" stroke="None">
<path d="
M 357.00 173.00 
C 346.61 187.40 338.14 195.87 322.00 203.00
C 326.07 202.31 334.71 198.52 339.00 202.00
C 339.00 202.00 339.60 202.20 340.00 202.00
C 342.46 198.48 346.07 195.93 349.00 193.00
C 354.32 185.96 361.67 180.06 370.00 178.00
C 370.83 181.18 365.93 184.40 369.00 187.00
C 374.36 178.16 379.51 168.46 386.00 160.00
C 381.49 162.49 372.16 159.19 368.92 163.92 C 365.68 168.65 360.10 170.59 357.00 173.00 Z"/>
</g>
<g fill="#4884A8" fill-opacity="1.00" stroke="None">
<path d="
M 311.00 173.00 
C 307.95 173.97 304.95 176.35 303.00 179.00
C 306.17 178.19 309.18 175.90 311.00 173.00 Z"/>
</g>
<g fill="#7595B1" fill-opacity="1.00" stroke="None">
<path d="
M 243.00 182.00 
C 243.67 182.49 244.55 184.54 244.00 184.00
C 249.16 185.86 254.00 188.42 258.25 192.75 C 262.51 197.08 268.30 199.18 272.00 198.00
C 267.82 197.11 262.97 190.26 258.23 188.77 C 253.49 187.28 248.50 183.30 244.00 181.00
C 243.85 180.99 243.33 182.01 243.00 182.00 Z"/>
</g>
<g fill="#73B6DF" fill-opacity="1.00" stroke="None">
<path d="
M 166.00 187.00 
C 168.26 196.99 178.93 200.83 186.77 205.23 C 194.61 209.63 202.64 216.51 211.31 218.69 C 219.97 220.88 232.98 230.11 239.00 221.00
C 230.14 215.39 219.49 212.31 211.00 206.00
C 208.66 204.26 206.01 202.01 204.00 200.00
C 205.04 202.38 207.89 203.59 209.00 206.00
C 202.38 203.54 196.34 200.21 190.00 197.00
C 185.83 195.59 178.95 195.29 174.00 192.00
C 171.92 190.62 169.17 188.62 169.00 186.00
C 166.88 185.85 168.72 188.41 166.00 187.00 Z"/>
</g>
<g fill="#5487A7" fill-opacity="1.00" stroke="None">
<path d="
M 174.00 192.00 
C 173.07 191.11 172.81 188.72 173.00 189.00
C 172.11 188.42 170.33 186.09 169.00 186.00
C 169.17 188.62 171.92 190.62 174.00 192.00 Z"/>
</g>
<g fill="#2F5E7F" fill-opacity="1.00" stroke="None">
<path d="
M 174.00 192.00 
C 178.95 195.29 185.83 195.59 190.00 197.00
C 184.45 194.20 178.26 192.45 173.00 189.00
C 172.81 188.72 173.07 191.11 174.00 192.00 Z"/>
</g>
<g fill="#375A80" fill-opacity="1.00" stroke="None">
<path d="
M 340.00 202.00 
C 343.49 200.30 346.51 195.91 349.00 193.00
C 346.07 195.93 342.46 198.48 340.00 202.00 Z"/>
</g>
<g fill="#31557D" fill-opacity="1.00" stroke="None">
<path d="
M 204.00 200.00 
C 206.01 202.01 208.66 204.26 211.00 206.00
C 206.87 202.40 203.55 197.38 199.00 194.00
C 200.75 195.53 202.44 198.17 204.00 200.00 Z"/>
</g>
<g fill="#77B5DE" fill-opacity="1.00" stroke="None">
<path d="
M 322.00 203.00 
C 308.82 208.64 295.94 215.38 284.00 223.00
C 304.57 223.71 322.33 212.37 339.00 202.00
C 334.71 198.52 326.07 202.31 322.00 203.00 Z"/>
</g>
<g fill="#1F334A" fill-opacity="0.82" stroke="None">
<path d="
M 25.00 259.00 
C 25.00 259.00 24.00 258.96 24.00 259.00
C 23.82 261.22 23.22 262.88 23.00 265.00
C 22.55 269.37 22.59 274.63 23.00 279.00
C 24.00 283.29 25.08 286.32 25.00 291.00
C 28.91 311.63 35.72 329.82 44.00 349.00
C 46.29 352.59 48.47 355.73 50.00 360.00
C 50.72 362.02 50.91 363.05 52.00 365.00
C 53.90 367.52 56.21 370.43 58.00 374.00
C 61.06 380.11 65.39 385.61 70.00 391.00
C 72.99 393.99 76.27 396.81 79.00 400.00
C 84.05 405.05 91.26 409.86 95.00 416.00
C 95.29 416.48 95.67 417.65 96.00 418.00
C 96.32 418.20 96.74 418.76 97.00 419.00
C 102.41 421.54 111.51 428.01 115.00 433.00
C 115.00 433.00 115.52 432.91 116.00 433.00
C 120.89 433.96 128.62 440.46 132.00 444.00
C 132.00 444.00 132.52 443.90 133.00 444.00
C 135.74 444.60 136.97 446.53 139.00 448.00
C 165.78 462.29 196.25 472.56 227.00 475.00
C 230.25 475.26 234.42 475.75 237.00 476.00
C 244.33 476.00 251.67 476.00 259.00 476.00
C 261.73 475.74 265.61 475.07 269.00 475.00
C 284.19 474.70 298.71 471.71 313.00 468.00
C 315.53 467.08 318.01 465.67 321.00 465.00
C 329.49 463.09 336.98 459.46 345.00 456.00
C 349.70 453.27 354.78 450.17 360.00 448.00
C 361.81 447.25 363.15 446.97 365.00 446.00
C 369.56 442.64 374.02 439.74 379.00 437.00
C 381.89 435.41 384.89 433.14 388.00 431.00
C 392.97 426.67 397.97 419.95 404.00 417.00
C 409.33 411.67 415.99 400.93 423.00 398.00
C 424.44 394.00 428.18 391.82 431.00 389.00
C 472.12 336.91 488.55 265.78 472.00 200.00
C 471.25 199.59 469.72 200.46 469.00 200.00
C 483.39 262.85 469.28 334.78 429.30 384.30 C 389.33 433.82 342.69 461.57 281.00 471.00 C 219.31 480.43 147.07 458.06 101.75 417.25 C 56.43 376.44 25.00 321.13 25.00 259.00 Z"/>
</g>
<g fill="#659FCD" fill-opacity="1.00" stroke="None">
<path d="
M 360.00 205.00 
C 343.90 207.16 333.33 223.20 317.00 226.00
C 332.07 225.54 349.70 218.32 360.00 205.00 Z"/>
</g>
<g fill="#6496C7" fill-opacity="1.00" stroke="None">
<path d="
M 185.00 227.00 
C 170.90 222.51 158.57 213.20 145.00 208.00
C 154.42 220.15 171.32 226.54 185.00 227.00 Z"/>
</g>
<g fill="#C7E1F0" fill-opacity="1.00" stroke="None">
<path d="
M 236.00 228.00 
C 236.22 228.03 238.94 230.01 239.00 230.00
C 239.37 229.32 240.54 228.87 241.00 228.00
C 243.63 223.09 244.62 218.68 248.00 214.00
C 251.95 218.74 257.19 213.29 261.08 212.08 C 264.98 210.87 274.16 211.65 274.00 208.00
C 259.55 206.85 238.42 208.94 240.00 228.00
C 238.78 228.32 237.19 227.59 236.00 228.00 Z"/>
</g>
<g fill="#7FBFE2" fill-opacity="1.00" stroke="None">
<path d="
M 241.00 228.00 
C 244.57 227.04 245.52 235.51 243.00 237.00
C 246.50 237.17 249.03 240.19 253.00 239.00
C 251.88 237.94 252.52 237.16 253.00 236.00
C 248.94 237.82 252.47 232.07 252.00 230.00
C 253.88 229.53 256.93 231.06 258.00 229.00
C 258.96 228.56 265.08 225.07 269.00 226.00
C 269.00 227.67 269.00 229.33 269.00 231.00
C 268.91 230.87 274.81 232.44 273.00 236.00
C 271.33 236.00 269.67 236.00 268.00 236.00
C 268.44 236.99 269.00 236.87 270.00 237.00
C 274.74 237.61 279.57 237.31 284.00 238.00
C 279.37 235.19 277.74 232.86 278.00 228.00
C 278.55 217.56 283.40 221.13 289.22 215.22 C 295.04 209.32 276.48 208.00 274.00 208.00
C 274.16 211.65 264.98 210.87 261.08 212.08 C 257.19 213.29 251.95 218.74 248.00 214.00
C 244.62 218.68 243.63 223.09 241.00 228.00 Z"/>
</g>
<g fill="#40759A" fill-opacity="1.00" stroke="None">
<path d="
M 258.00 229.00 
C 259.67 229.00 261.33 229.00 263.00 229.00
C 262.64 231.61 264.52 236.95 260.00 236.00
C 261.59 236.27 263.16 235.95 264.74 238.26 C 266.33 240.57 270.08 236.99 270.00 237.00
C 269.00 236.87 268.44 236.99 268.00 236.00
C 267.29 234.41 268.95 232.59 269.00 231.00
C 269.00 229.33 269.00 227.67 269.00 226.00
C 265.08 225.07 258.96 228.56 258.00 229.00 Z"/>
</g>
<g fill="#EEF4F8" fill-opacity="1.00" stroke="None">
<path d="
M 156.00 242.00 
C 155.25 242.87 154.51 244.01 154.00 245.00
C 155.00 245.11 156.73 244.53 157.00 246.00
C 169.02 247.99 182.81 245.12 194.00 249.00
C 179.71 251.01 187.40 264.44 190.68 273.32 C 193.95 282.21 196.10 292.65 201.00 301.00
C 200.99 300.85 201.92 300.35 202.00 300.00
C 201.00 285.33 194.43 272.26 189.00 259.00
C 197.90 261.97 207.99 259.45 216.00 265.00
C 216.51 265.25 219.87 266.32 221.00 268.00
C 224.22 268.85 227.86 267.21 231.00 267.00
C 234.76 266.33 238.32 266.40 242.00 267.00
C 245.25 267.18 248.20 266.90 250.00 270.00
C 252.14 273.67 250.34 278.49 250.00 282.00
C 250.00 299.83 249.00 317.86 249.00 336.00
C 249.20 338.10 250.00 341.23 250.00 344.00
C 250.00 347.67 250.00 351.33 250.00 355.00
C 250.86 358.15 247.70 365.66 253.00 365.00
C 253.00 356.67 253.00 348.33 253.00 340.00
C 253.00 332.64 252.52 324.26 253.00 317.00 C 253.48 309.74 251.79 299.81 253.00 293.00 C 254.21 286.19 249.79 274.88 254.00 270.00
C 260.09 262.95 278.11 272.28 285.26 264.26 C 292.41 256.23 305.82 259.79 315.00 257.00
C 315.71 256.78 320.48 254.66 321.00 254.00
C 323.44 252.59 320.59 249.77 320.00 248.00
C 322.93 245.69 326.41 246.07 330.00 246.00
C 336.21 245.25 344.46 243.81 351.00 246.00
C 353.80 240.55 342.62 238.05 338.02 236.98 C 333.43 235.90 324.40 233.53 319.01 232.99 C 313.62 232.45 304.91 229.71 299.67 229.33 C 294.43 228.95 282.69 224.95 278.00 228.00
C 277.74 232.86 279.37 235.19 284.00 238.00
C 287.87 240.34 291.27 242.05 295.00 245.00
C 292.90 247.08 288.85 245.50 286.00 246.00
C 283.35 246.00 280.64 245.82 278.00 246.00
C 270.37 246.52 264.12 246.90 256.00 247.00 C 247.88 247.10 243.05 246.55 234.98 245.02 C 226.90 243.50 229.70 236.44 238.00 237.00
C 237.70 236.34 238.67 230.61 239.00 230.00
C 238.94 230.01 236.22 228.03 236.00 228.00
C 227.67 226.66 215.64 230.88 207.07 231.07 C 198.51 231.26 189.29 234.76 181.01 236.01 C 172.73 237.26 162.46 236.89 156.00 242.00 Z"/>
</g>
<g fill="#5F94B6" fill-opacity="1.00" stroke="None">
<path d="
M 239.00 230.00 
C 238.67 230.61 237.70 236.34 238.00 237.00
C 243.24 237.35 247.89 241.16 254.00 240.00
C 254.01 238.37 252.72 237.49 254.00 236.00
C 253.50 236.00 253.00 236.00 253.00 236.00
C 252.52 237.16 251.88 237.94 253.00 239.00
C 249.03 240.19 246.50 237.17 243.00 237.00
C 245.52 235.51 244.57 227.04 241.00 228.00
C 240.54 228.87 239.37 229.32 239.00 230.00 Z"/>
</g>
<g fill="#51688C" fill-opacity="1.00" stroke="None">
<path d="
M 30.00 240.00 
C 30.29 236.99 31.00 232.75 31.00 229.00
C 30.71 232.01 30.00 236.25 30.00 240.00 Z"/>
</g>
<g fill="#DBEFF8" fill-opacity="1.00" stroke="None">
<path d="
M 253.00 236.00 
C 253.00 236.00 253.50 236.00 254.00 236.00
C 255.91 236.00 258.12 235.69 260.00 236.00
C 264.52 236.95 262.64 231.61 263.00 229.00
C 261.33 229.00 259.67 229.00 258.00 229.00
C 256.93 231.06 253.88 229.53 252.00 230.00
C 252.47 232.07 248.94 237.82 253.00 236.00 Z"/>
</g>
<g fill="#C2E4F6" fill-opacity="1.00" stroke="None">
<path d="
M 269.00 231.00 
C 268.95 232.59 267.29 234.41 268.00 236.00
C 269.67 236.00 271.33 236.00 273.00 236.00
C 274.81 232.44 268.91 230.87 269.00 231.00 Z"/>
</g>
<g fill="#11305F" fill-opacity="1.00" stroke="None">
<path d="
M 238.00 237.00 
C 229.70 236.44 226.90 243.50 234.98 245.02 C 243.05 246.55 247.88 247.10 256.00 247.00 C 264.12 246.90 270.37 246.52 278.00 246.00
C 280.79 245.50 283.37 245.75 286.00 246.00
C 288.85 245.50 292.90 247.08 295.00 245.00
C 291.27 242.05 287.87 240.34 284.00 238.00
C 279.57 237.31 274.74 237.61 270.00 237.00
C 270.08 236.99 266.33 240.57 264.74 238.26 C 263.16 235.95 261.59 236.27 260.00 236.00
C 258.12 235.69 255.91 236.00 254.00 236.00
C 252.72 237.49 254.01 238.37 254.00 240.00
C 247.89 241.16 243.24 237.35 238.00 237.00 Z"/>
</g>
<g fill="#5F7497" fill-opacity="1.00" stroke="None">
<path d="
M 469.00 269.00 
C 470.29 259.99 469.88 249.06 469.00 240.00
C 469.00 249.64 469.37 259.37 469.00 269.00 Z"/>
</g>
<g fill="#B7CBE2" fill-opacity="1.00" stroke="None">
<path d="
M 168.00 272.00 
C 167.98 271.91 168.96 271.35 169.00 271.00
C 169.90 262.31 160.55 251.68 157.00 246.00
C 156.73 244.53 155.00 245.11 154.00 245.00
C 154.51 244.01 155.25 242.87 156.00 242.00
C 154.86 242.03 154.28 243.53 153.00 243.00
C 156.59 253.31 162.54 262.51 168.00 272.00 Z"/>
</g>
<g fill="#849BBA" fill-opacity="1.00" stroke="None">
<path d="
M 278.00 246.00 
C 280.64 245.82 283.35 246.00 286.00 246.00
C 283.37 245.75 280.79 245.50 278.00 246.00 Z"/>
</g>
<g fill="#7F8FA6" fill-opacity="1.00" stroke="None">
<path d="
M 330.00 246.00 
C 334.68 245.91 344.43 244.37 348.00 247.00
C 348.30 247.22 349.01 247.67 349.00 248.00
C 349.58 247.26 350.46 247.05 351.00 246.00
C 344.46 243.81 336.21 245.25 330.00 246.00 Z"/>
</g>
<g fill="#CAD9ED" fill-opacity="1.00" stroke="None">
<path d="
M 335.00 274.00 
C 335.36 273.77 336.00 274.00 336.00 274.00
C 340.63 265.93 343.38 255.17 349.00 248.00
C 349.01 247.67 348.30 247.22 348.00 247.00
C 344.57 247.67 340.97 255.60 339.98 258.98 C 338.98 262.36 334.73 270.17 335.00 274.00 Z"/>
</g>
<g fill="#11313B" fill-opacity="0.33" stroke="None">
<path d="
M 23.00 258.00 
C 22.31 260.94 22.81 262.56 23.00 265.00
C 23.22 262.88 23.82 261.22 24.00 259.00
C 23.66 257.44 24.75 254.83 23.00 254.00
C 22.77 255.28 23.30 256.74 23.00 258.00 Z"/>
</g>
<g fill="#C1D1E3" fill-opacity="1.00" stroke="None">
<path d="
M 315.00 257.00 
C 317.34 261.77 309.93 270.45 308.78 277.78 C 307.62 285.10 303.50 293.37 301.78 300.78 C 300.05 308.18 296.37 317.12 297.00 324.00
C 305.09 301.18 315.59 277.79 321.00 254.00
C 320.48 254.66 315.71 256.78 315.00 257.00 Z"/>
</g>
<g fill="#546B8D" fill-opacity="1.00" stroke="None">
<path d="
M 31.00 270.00 
C 31.00 266.91 30.23 263.42 30.00 261.00
C 30.00 264.09 30.77 267.58 31.00 270.00 Z"/>
</g>
<g fill="#94C5E8" fill-opacity="1.00" stroke="None">
<path d="
M 269.00 360.00 
C 269.12 361.51 271.09 364.84 271.00 363.00
C 288.25 331.61 298.57 297.79 298.00 261.00
C 279.68 290.60 273.93 325.50 269.00 360.00 Z"/>
</g>
<g fill="#BFD2E8" fill-opacity="1.00" stroke="None">
<path d="
M 216.00 265.00 
C 224.66 271.00 220.11 286.26 223.22 295.78 C 226.33 305.30 226.08 318.54 227.00 329.00 C 227.92 339.46 229.41 349.52 234.00 359.00
C 234.01 358.82 234.96 358.35 235.00 358.00
C 232.16 348.65 230.00 339.08 230.00 329.00
C 229.58 324.63 229.10 319.04 229.00 314.00
C 228.84 306.16 227.11 297.48 226.00 290.00 C 224.88 282.53 225.21 274.26 221.00 268.00
C 219.87 266.32 216.51 265.25 216.00 265.00 Z"/>
</g>
<g fill="#7C8DAB" fill-opacity="1.00" stroke="None">
<path d="
M 231.00 267.00 
C 234.57 266.76 238.43 266.81 242.00 267.00
C 238.32 266.40 234.76 266.33 231.00 267.00 Z"/>
</g>
<g fill="#596C8A" fill-opacity="1.00" stroke="None">
<path d="
M 250.00 282.00 
C 250.34 278.49 252.14 273.67 250.00 270.00
C 251.15 272.98 250.00 278.77 250.00 282.00 Z"/>
</g>
<g fill="#53647E" fill-opacity="1.00" stroke="None">
<path d="
M 253.00 340.00 
C 253.64 333.34 253.82 324.31 254.00 317.00 C 254.18 309.69 252.75 299.84 254.00 293.00 C 255.25 286.16 250.64 275.59 254.00 270.00
C 249.79 274.88 254.21 286.19 253.00 293.00 C 251.79 299.81 253.48 309.74 253.00 317.00 C 252.52 324.26 253.00 332.64 253.00 340.00 Z"/>
</g>
<g fill="#6887B7" fill-opacity="1.00" stroke="None">
<path d="
M 168.00 272.00 
C 170.18 273.74 169.47 278.20 173.00 278.00
C 171.88 275.66 169.84 273.22 169.00 271.00
C 168.96 271.35 167.98 271.91 168.00 272.00 Z"/>
</g>
<g fill="#5976A7" fill-opacity="1.00" stroke="None">
<path d="
M 336.00 274.00 
C 336.00 274.00 335.36 273.77 335.00 274.00
C 333.25 274.39 332.70 276.43 333.00 278.00
C 334.84 277.51 335.17 275.42 336.00 274.00 Z"/>
</g>
<g fill="#193C4A" fill-opacity="0.38" stroke="None">
<path d="
M 25.00 291.00 
C 25.08 286.32 24.00 283.29 23.00 279.00
C 23.35 282.74 24.29 287.27 25.00 291.00 Z"/>
</g>
<g fill="#8CA2CE" fill-opacity="1.00" stroke="None">
<path d="
M 201.00 301.00 
C 201.85 302.44 202.18 304.40 204.00 305.00
C 204.09 303.58 203.60 300.46 202.00 300.00
C 201.92 300.35 200.99 300.85 201.00 301.00 Z"/>
</g>
<g fill="#667A94" fill-opacity="1.00" stroke="None">
<path d="
M 230.00 329.00 
C 230.00 323.90 229.54 318.43 229.00 314.00
C 229.10 319.04 229.58 324.63 230.00 329.00 Z"/>
</g>
<g fill="#8E9EBF" fill-opacity="1.00" stroke="None">
<path d="
M 249.00 344.00 
C 249.00 343.96 250.00 344.00 250.00 344.00
C 250.00 341.23 249.20 338.10 249.00 336.00
C 249.00 338.67 249.00 341.33 249.00 344.00 Z"/>
</g>
<g fill="#5E7092" fill-opacity="1.00" stroke="None">
<path d="
M 250.00 355.00 
C 250.00 351.33 250.00 347.67 250.00 344.00
C 250.00 344.00 249.00 343.96 249.00 344.00
C 249.00 347.75 249.70 351.92 250.00 355.00 Z"/>
</g>
<g fill="#294549" fill-opacity="0.22" stroke="None">
<path d="
M 50.00 360.00 
C 48.47 355.73 46.29 352.59 44.00 349.00
C 45.70 352.93 48.13 356.46 50.00 360.00 Z"/>
</g>
<g fill="#7594BD" fill-opacity="1.00" stroke="None">
<path d="
M 234.00 359.00 
C 235.26 360.61 234.61 363.32 237.00 364.00
C 236.93 361.87 235.50 359.65 235.00 358.00
C 234.96 358.35 234.01 358.82 234.00 359.00 Z"/>
</g>
<g fill="#5679AB" fill-opacity="1.00" stroke="None">
<path d="
M 271.00 363.00 
C 271.09 364.84 269.12 361.51 269.00 360.00
C 266.86 361.38 268.52 364.81 268.00 367.00
C 269.84 366.51 270.17 364.42 271.00 363.00 Z"/>
</g>
<g fill="#315057" fill-opacity="0.20" stroke="None">
<path d="
M 58.00 374.00 
C 56.21 370.43 53.90 367.52 52.00 365.00
C 53.79 368.19 56.19 371.10 58.00 374.00 Z"/>
</g>
<g fill="#2E4851" fill-opacity="0.22" stroke="None">
<path d="
M 423.00 398.00 
C 422.84 398.44 423.00 399.00 423.00 399.00
C 425.54 395.82 428.35 392.35 431.00 389.00
C 428.18 391.82 424.44 394.00 423.00 398.00 Z"/>
</g>
<g fill="#466060" fill-opacity="0.11" stroke="None">
<path d="
M 96.00 418.00 
C 95.67 417.65 95.29 416.48 95.00 416.00
C 89.92 410.55 83.84 405.66 79.00 400.00
C 76.27 396.81 72.99 393.99 70.00 391.00
C 77.39 399.65 86.01 411.83 96.00 418.00 Z"/>
</g>
<g fill="#607592" fill-opacity="1.00" stroke="None">
<path d="
M 98.00 408.00 
C 93.80 403.80 89.25 399.25 85.00 395.00
C 88.94 399.61 93.69 403.69 98.00 408.00 Z"/>
</g>
<g fill="#2F4E5B" fill-opacity="0.36" stroke="None">
<path d="
M 404.00 417.00 
C 404.40 416.80 405.00 417.00 405.00 417.00
C 405.66 416.44 406.40 415.63 407.00 415.00
C 411.49 410.28 415.84 404.95 421.00 401.00
C 421.72 400.45 422.82 400.15 423.00 399.00
C 423.00 399.00 422.84 398.44 423.00 398.00
C 415.99 400.93 409.33 411.67 404.00 417.00 Z"/>
</g>
<g fill="#374E5B" fill-opacity="0.62" stroke="None">
<path d="
M 95.00 416.00 
C 91.26 409.86 84.05 405.05 79.00 400.00
C 83.84 405.66 89.92 410.55 95.00 416.00 Z"/>
</g>
<g fill="#346263" fill-opacity="0.03" stroke="None">
<path d="
M 407.00 415.00 
C 412.08 410.88 416.35 405.61 421.00 401.00
C 415.84 404.95 411.49 410.28 407.00 415.00 Z"/>
</g>
<g fill="#A2B4CB" fill-opacity="1.00" stroke="None">
<path d="
M 105.00 415.00 
C 102.80 413.19 100.10 410.10 98.00 408.00
C 100.29 410.29 102.21 413.05 105.00 415.00 Z"/>
</g>
<g fill="#465F6B" fill-opacity="0.12" stroke="None">
<path d="
M 388.00 431.00 
C 394.01 426.87 399.48 421.69 405.00 417.00
C 405.00 417.00 404.40 416.80 404.00 417.00
C 397.97 419.95 392.97 426.67 388.00 431.00 Z"/>
</g>
<g fill="#495E64" fill-opacity="0.11" stroke="None">
<path d="
M 115.00 433.00 
C 111.51 428.01 102.41 421.54 97.00 419.00
C 102.58 424.14 108.91 428.35 115.00 433.00 Z"/>
</g>
<g fill="#4D5F67" fill-opacity="0.19" stroke="None">
<path d="
M 132.00 444.00 
C 128.62 440.46 120.89 433.96 116.00 433.00
C 120.03 437.20 126.42 441.81 132.00 444.00 Z"/>
</g>
<g fill="#4B616F" fill-opacity="0.15" stroke="None">
<path d="
M 365.00 446.00 
C 370.02 443.38 374.44 440.09 379.00 437.00
C 374.02 439.74 369.56 442.64 365.00 446.00 Z"/>
</g>
<g fill="#4E616B" fill-opacity="0.18" stroke="None">
<path d="
M 139.00 448.00 
C 136.97 446.53 135.74 444.60 133.00 444.00
C 134.38 446.21 136.75 446.80 139.00 448.00 Z"/>
</g>
<g fill="#365766" fill-opacity="0.12" stroke="None">
<path d="
M 345.00 456.00 
C 350.28 453.72 355.16 450.55 360.00 448.00
C 354.78 450.17 349.70 453.27 345.00 456.00 Z"/>
</g>
<g fill="#3E5D6A" fill-opacity="0.12" stroke="None">
<path d="
M 313.00 468.00 
C 315.86 467.26 318.56 465.79 321.00 465.00
C 318.01 465.67 315.53 467.08 313.00 468.00 Z"/>
</g>
<g fill="#768A97" fill-opacity="0.13" stroke="None">
<path d="
M 237.00 476.00 
C 234.42 475.75 230.25 475.26 227.00 475.00
C 229.89 475.56 233.42 476.00 237.00 476.00 Z"/>
</g>
<g fill="#41646E" fill-opacity="0.12" stroke="None">
<path d="
M 259.00 476.00 
C 262.47 476.00 266.19 475.34 269.00 475.00
C 265.61 475.07 261.73 475.74 259.00 476.00 Z"/>
</g>
</svg>